<svg width="24" height="24" viewBox="0 0 24 24" fill="none" xmlns="http://www.w3.org/2000/svg">
<path d="M5.88117 11.2107L10.66 13.1265C10.8397 12.8813 11.0797 12.6757 11.3786 12.5478C12.271 12.1662 13.3073 12.5816 13.6889 13.474C14.0706 14.3664 13.6551 15.4026 12.7628 15.7843C11.8704 16.1659 10.8341 15.7505 10.4525 14.8581C10.3244 14.5587 10.2935 14.2446 10.3325 13.9432L5.55377 12.0277C5.32789 11.9372 5.21852 11.6814 5.30915 11.4557C5.39978 11.23 5.6553 11.1202 5.88117 11.2107ZM12.4168 14.9753C12.8631 14.7844 13.0707 14.2664 12.8799 13.8202C12.689 13.3739 12.171 13.1662 11.7247 13.3571C11.2784 13.5479 11.0708 14.066 11.2616 14.5122C11.4525 14.9585 11.9705 15.1662 12.4168 14.9753Z" fill="#1C1C1C"/>
<path d="M15.9605 17.52H8.0405C7.79771 17.52 7.6005 17.7166 7.6005 17.96C7.6005 18.2034 7.79771 18.4 8.0405 18.4H15.9605C16.2033 18.4 16.4005 18.2034 16.4005 17.96C16.4005 17.7166 16.2033 17.52 15.9605 17.52Z" fill="#1C1C1C"/>
<path d="M14.2004 19.2799H9.80036C9.55757 19.2799 9.36036 19.4766 9.36036 19.7199C9.36036 19.9633 9.55757 20.16 9.80036 20.16H14.2004C14.4431 20.16 14.6404 19.9633 14.6404 19.7199C14.6404 19.4766 14.4431 19.2799 14.2004 19.2799Z" fill="#1C1C1C"/>
<path d="M12 3C5.93454 3 1 7.9347 1 14C1 16.9449 2.14928 19.712 4.23579 21.7918C4.31849 21.8745 4.43026 21.9203 4.54693 21.9203H19.4537C19.5703 21.9203 19.6821 21.8745 19.7642 21.7918C21.8507 19.7124 23 16.9451 23 14C23 7.93454 18.0653 3 12 3ZM19.2693 21.04H4.7307C2.89115 19.1423 1.87995 16.6493 1.87995 14C1.87995 8.4193 6.4198 3.88 12 3.88C17.5801 3.88 22.12 8.41945 22.12 14C22.12 16.6493 21.1089 19.1422 19.2693 21.04Z" fill="#1C1C1C"/>
<path d="M12 21.8673C8.66887 21.8673 5.60065 21.8673 4.52056 21.3632C2.86443 20.1361 1 16.7321 1 14C1 7.93676 5.93676 3 12 3C18.0633 3 23 7.93676 23 14C23 16.425 21.4456 19.7041 20.1101 20.9235C17.9117 21.9463 15.6383 21.8673 12 21.8673ZM12 4.3253C6.66566 4.3253 2.3253 8.66566 2.3253 14C2.3253 16.7712 3.49673 19.2742 5.37038 21.0397C7.10329 22.6726 9.43691 21.1147 12 21.1147C14.5631 21.1147 16.8967 22.6726 18.6296 21.0397C20.5033 19.2742 21.6747 16.7712 21.6747 14C21.6747 8.66566 17.3343 4.3253 12 4.3253Z" fill="#1C1C1C"/>
</svg>
