<svg xmlns="http://www.w3.org/2000/svg" width="128" height="27" viewBox="0 0 262.71 55.89"><g id="moto"><g id="moto-bmw"><g id="Ebene_1-2"><path d="m95.07,16.82c0,3.64-2.26,6.59-8.51,6.59h-11.12V1.06h11.27c5.18,0,7.73,2.76,7.73,5.97,0,1.95-.82,3.89-2.73,4.84,2.03.81,3.36,2.78,3.36,4.96m-13.72-10.96v4.24h4.8c1.16.05,2.14-.84,2.2-2,0-.05,0-.11,0-.16,0-1.26-.97-2.07-2.2-2.07h-4.8Zm7.63,10.65c0-1.22-.85-2.04-2.36-2.04h-5.28v4.15h5.24c1.57,0,2.39-.69,2.39-2.1"/><path d="m118.59,23.41l-.5-14.89c-.35,1.32-.72,2.67-1.16,4.02l-3.52,10.87h-5.72l-3.52-10.87c-.44-1.32-.79-2.64-1.13-3.96l-.5,14.82h-5.68l.91-22.36h8.17l4.62,15.48,4.62-15.48h8.17l.91,22.36h-5.65Z"/><path d="m158.19,1.06c-1.82,7.57-3.77,14.73-6.09,22.36h-7.19l-3.08-14.04-3.11,14.04h-7.19c-2.32-7.63-4.27-14.79-6.12-22.36h6.37c1.07,4.77,2.29,9.89,3.55,14.85l3.17-14.85h6.63l3.17,14.85c1.26-4.96,2.48-10.08,3.55-14.85h6.34Z"/><path d="m96.26,54.84l-.5-14.88c-.35,1.32-.72,2.67-1.16,4.02l-3.52,10.86h-5.71l-3.52-10.86c-.44-1.32-.78-2.64-1.13-3.96l-.5,14.82h-5.68l.91-22.36h8.16l4.62,15.48,4.62-15.48h8.16l.91,22.36h-5.65Z"/><path d="m103.55,43.66c0-7.13,5.97-11.68,12.4-11.68s12.4,4.55,12.4,11.68-5.97,11.68-12.4,11.68-12.4-4.55-12.4-11.68m18.71,0c-.01-3.49-2.85-6.31-6.34-6.3-3.49.01-6.31,2.85-6.3,6.34.01,3.49,2.85,6.31,6.34,6.3,3.48-.01,6.3-2.84,6.3-6.32v-.02"/><path d="m147.35,37.53h-6.5v17.3h-5.97v-17.3h-6.47v-5.06h18.93v5.06Z"/><path d="m147.41,43.66c0-7.13,5.97-11.68,12.4-11.68s12.4,4.55,12.4,11.68-5.97,11.68-12.4,11.68-12.4-4.55-12.4-11.68m18.71,0c-.01-3.49-2.85-6.31-6.34-6.3s-6.31,2.85-6.3,6.34c.01,3.49,2.85,6.31,6.34,6.3,3.48-.01,6.3-2.84,6.3-6.32v-.02"/><path d="m193.82,54.71v.13h-6.41c-.43-1.24-.92-2.46-1.48-3.64-.54-1.11-1.16-2.18-1.85-3.2h-3.74v6.84h-5.97v-22.36h9.8c6.31,0,8.67,3.74,8.67,7.35.07,2.51-1.22,4.85-3.36,6.15.93,1.34,1.74,2.74,2.45,4.21.71,1.47,1.34,2.98,1.88,4.52m-13.47-11.62h3.8c1.6,0,2.83-1.04,2.83-2.86s-1.22-2.86-2.83-2.86h-3.8v5.71Z"/><path d="m215.52,54.71v.13h-6.41c-.43-1.24-.92-2.46-1.48-3.64-.54-1.11-1.16-2.18-1.85-3.2h-3.74v6.84h-5.97v-22.36h9.8c6.31,0,8.67,3.74,8.67,7.35.07,2.51-1.22,4.85-3.36,6.15.93,1.34,1.74,2.74,2.45,4.21.71,1.47,1.34,2.98,1.88,4.52m-13.47-11.62h3.8c1.6,0,2.83-1.04,2.83-2.86s-1.22-2.86-2.83-2.86h-3.8v5.71Z"/><path d="m232.54,50.5h-8.35c-.38,1.44-.75,2.89-1.1,4.33h-6c1.98-8.16,4.27-15.39,7.25-22.36h8.1c2.98,6.97,5.28,14.19,7.22,22.36h-6.03c-.35-1.44-.72-2.89-1.1-4.33m-1.44-5.18c-.88-3.11-1.82-6-2.73-8.32-.94,2.32-1.85,5.21-2.76,8.32h5.49Z"/><path d="m262.71,43.66c0,6.31-4.84,11.18-12.68,11.18h-8.51v-22.36h8.51c7.85,0,12.68,4.87,12.68,11.18m-6.09,0c0-4.05-3.14-6.03-6.59-6.03h-2.54v12.06h2.54c3.45,0,6.59-1.98,6.59-6.03"/><path d="m27.95,0C12.51,0,0,12.51,0,27.95c0,15.43,12.51,27.95,27.95,27.95s27.95-12.51,27.95-27.95C55.89,12.51,43.38,0,27.95,0h0m26.13,27.95c0,14.43-11.7,26.13-26.13,26.13S1.82,42.38,1.82,27.95c0-14.43,11.7-26.13,26.13-26.13,14.43,0,26.13,11.7,26.13,26.13h0"/><path d="m27.95,11.37v.91c8.65,0,15.65,7.02,15.66,15.66h.91c0-9.15-7.42-16.57-16.57-16.57m0,32.24c-8.65,0-15.65-7.02-15.66-15.66h-.91c0,9.15,7.42,16.57,16.57,16.57h0"/><path d="m41.49,16.09c.38.41.93,1.07,1.23,1.46l5.66-3.59c-.28-.37-.73-.93-1.07-1.33l-3.58,2.37-.24.21.18-.27,1.58-3.16-1.12-1.12-3.16,1.58-.27.18.21-.25,2.37-3.58c-.42-.36-.82-.68-1.33-1.08l-3.59,5.65c.46.35,1.05.86,1.44,1.21l3.38-1.75.22-.16-.16.22-1.75,3.38Z"/><path d="m28.65,8.92l1.55-3.46.1-.31-.03.32.16,4.63c.54.05,1.1.13,1.66.22l-.25-6.86c-.77-.08-1.54-.15-2.31-.18l-1.52,3.78-.05.28-.05-.28-1.52-3.78c-.77.03-1.54.09-2.31.18l-.25,6.86c.55-.09,1.11-.17,1.66-.22l.16-4.63-.03-.32.1.31,1.55,3.46h1.41Z"/><path d="m16.14,14.39c.89-.94,1.4-2.03.51-3.07-.5-.55-1.3-.71-1.98-.41l-.07.03.02-.06c.17-.63-.05-1.31-.56-1.71-.35-.28-.8-.4-1.25-.35-.84.09-1.49.66-3.24,2.62-.53.59-1.3,1.52-1.77,2.13l4.83,4.58c1.6-1.77,2.26-2.43,3.52-3.76m-6.3-1.12c.77-.95,1.6-1.85,2.48-2.7.14-.15.31-.26.5-.32.32-.07.64.13.72.45h0s0,.01,0,.01c.03.34-.1.67-.36.89-.51.58-2.4,2.55-2.4,2.55l-.94-.89Zm1.89,1.79s1.84-1.94,2.44-2.56c.16-.19.35-.35.56-.48.2-.12.45-.11.65.01.2.13.3.37.25.6-.09.28-.26.54-.48.74-.25.27-2.43,2.6-2.43,2.61l-.98-.93Z"/><path d="m27.95,11.37v16.57H11.37c0-9.15,7.41-16.57,16.56-16.57h.02" style="fill:#0066b1;"/><path d="m44.52,27.95c0,9.15-7.41,16.57-16.56,16.57h-.02v-16.57h16.57Z" style="fill:#0066b1;"/></g></g></g></svg>