<svg xmlns="http://www.w3.org/2000/svg" width="128" height="98" viewBox="0 0 110.18 84.54"><g id="moto"><g id="moto-harley-davidson"><path d="m15.07,61.15c2.78,0,6.62-1.61,6.74-4.27H0v-29.22h23.16c.13-2.55-2.25-4.72-4.49-4.72v-10.8c7.36,0,29.51-4.56,36.45-12.15,6.89,7.58,25.81,12.15,36.4,12.15v10.8c-2.24,0-4.62,2.17-4.5,4.72h23.16v29.23h-21.81c.13,2.69,3.98,4.25,6.72,4.27-15.7,14.4-27.9,23.38-39.99,23.38s-24.31-8.98-40.01-23.38h-.02s0-.01,0-.01Z"/><path d="m7.62,35.07h2.53v5.38h1.77v-5.38h2.47v14.41h-2.47v-6.18h-1.77v6.18h-2.53v-14.41Zm12.44.02h-3.48l-1.95,14.37h2.64l.32-3.38h1.62l.42,3.38h2.19l-1.76-14.37Zm-1.71,8.09h-.49l.42-4.51.07.55.5,3.97h-.5Zm10.44,3.94v-2.5c0-1.16-.35-2.27-1.14-2.72.84-.4,1.14-1.75,1.14-2.73v-1.36c0-2.17-1.02-2.72-2.74-2.72h-3.55v14.37h2.25v-5.74h.49c.14,0,.27,0,.43.07.49.16.91.65.91,1.27v3.57c0,.27.05.54.11.83h2.41c-.24-.68-.29-1.54-.29-2.34h-.02Zm-2.24-7.62c0,.65-.35,1.2-.9,1.45-.23.1-.48.15-.73.15h-.17v-4.31h.23c.24,0,.48.05.7.16.53.27.91.81.91,1.34v1.2h-.04Zm3.17-4.43h2.42v12.21h2.1v2.2h-4.52v-14.41Zm5.16,0h4.95v1.83h-2.47v3.71h2.47v2.26h-2.47v4.62h2.47v1.99h-4.95v-14.41Zm5.16,0h2.47l.75,4.19,1.02-4.19h2.47l-2.47,7.64.11,6.78h-2.31v-6.83l-2.04-7.58Zm6.24,5.97h4.19v2.1h-4.19v-2.1Zm8.77-5.95h-3.66v14.37h3.66c1.51,0,2.4-1.33,2.4-2.57v-9.82c0-1.09-1.12-2.01-2.41-1.99h0Zm.16,10.57c0,.7-.25,1.14-.75,1.33-.16.07-.35.09-.58.09h-.17v-10.37h.21c.21,0,.38,0,.54.11.48.16.75.59.75,1.22v7.62Zm7.88-10.57h-3.5l-1.94,14.37h2.64l.32-3.38h1.62l.42,3.38h2.19l-1.76-14.37h0Zm-1.71,8.09h-.49l.42-4.51.07.55.49,3.97h-.49Zm2.96-8.11h2.26l.86,7.64.86-7.64h2.31l-1.88,14.41h-2.47l-1.94-14.41Zm6.83,0h2.47v14.36h-2.47v-14.36Zm23.27,11.18v-7.95c0-1.76-1.3-3.21-2.9-3.21s-2.93,1.44-2.93,3.21v7.95c0,1.77,1.31,3.21,2.93,3.21s2.91-1.44,2.91-3.21h0Zm-1.91.63c0,.44-.4.79-.9.79s-.89-.35-.89-.79v-9.21c-.01-.45.39-.77.87-.79h0c.5,0,.91.38.91.79v9.21h0Zm-14.31-11.79h-3.68v14.37h3.68c1.5,0,2.4-1.33,2.4-2.57v-9.82c0-1.09-1.17-2.01-2.41-1.99h0Zm.16,10.57c0,.7-.26,1.14-.77,1.33-.19.06-.39.09-.59.09h-.16v-10.37h.19c.22,0,.38,0,.54.11.49.16.75.59.75,1.22v7.61l.03.02Zm6.4-8.78c.41,0,.75.38.75.79v2.01h2.19v-1.38c0-1.77-1.37-3.21-3.04-3.21s-3.04,1.44-3.04,3.21v1.98c0,.65.7,1.34,1.24,1.73l1.73,1.22c.38.27.97.7.97,1.49v2.17c0,.44-.34.79-.75.79s-.77-.35-.77-.79v-3h-2.36v2.38c0,1.78,1.34,3.23,3.07,3.21,1.67,0,3.04-1.44,3.04-3.21v-2.65c0-.62-.73-1.33-1.34-1.75l-1.45-.99c-.41-.28-.93-.68-.93-1.2v-1.99c-.07-.45.26-.77.69-.79h0,0Zm10.8-1.81h3.01l1.45,6.35v-6.35h2.21v14.41h-2.9l-1.45-8.01-.05,8.01h-2.26v-14.41Z" style="fill:#fff;"/><path d="m55.1,30.36H2.7v23.84h104.8v-23.84h-52.4,0Zm49.71,21.14H5.39v-18.44h99.41v18.44h0Z" style="fill:#f86700;"/><path d="m55.1,6.52c4.95,5.16,24.31,10.11,31.24,10.11v3.6c-2.39,1.44-4.61,3.74-4.5,7.43h2.48v-.11c-.08-2.47,1.93-5.26,4.27-6.07v-6.75c-10.35,0-28.12-5.51-33.51-11.36-5.39,5.85-24.7,11.36-33.51,11.36v6.75c2.34.81,4.36,3.6,4.3,6.08v.11s2.47,0,2.47,0c.11-3.69-2.11-5.99-4.5-7.43v-3.6c6.99-.02,26.32-4.96,31.27-10.12h0Zm27.66,50.37c.07,2.21.91,4.52,2.8,6.08-7.29,6.3-21.9,16.42-30.45,16.42s-23.16-10.12-30.45-16.42c1.9-1.58,2.72-3.85,2.79-6.08h-2.48c-.13,2.27-1.92,4.89-4.26,5.29,9.94,8.82,22.21,19.79,34.41,19.79,12.2,0,24.46-10.98,34.41-19.79-2.34-.4-4.14-3.02-4.26-5.29h-2.5s0,0,0,0Z"/><path d="m55.1,6.52c4.95,5.16,24.31,10.11,31.24,10.11v3.6c-2.39,1.44-4.61,3.74-4.5,7.43h2.48v-.11c-.08-2.47,1.93-5.26,4.27-6.07v-6.75c-10.35,0-28.12-5.51-33.51-11.36-5.39,5.85-24.7,11.36-33.51,11.35v6.75c2.34.81,4.36,3.6,4.3,6.07v.11s2.47,0,2.47,0c.11-3.69-2.11-5.99-4.5-7.43v-3.6c6.99,0,26.32-4.94,31.27-10.1h0Z" style="fill:#fa6600;"/><path d="m82.76,56.89c.07,2.21.91,4.52,2.8,6.08-7.29,6.3-21.9,16.42-30.45,16.4-8.54,0-23.16-10.12-30.45-16.42,1.9-1.58,2.72-3.85,2.79-6.08h-2.48c-.13,2.27-1.92,4.89-4.26,5.27,9.94,8.82,22.21,19.79,34.41,19.79,12.2,0,24.46-10.98,34.41-19.79-2.34-.4-4.14-3.02-4.26-5.29h-2.5v.04h0ZM47.6,12.79l-2.11.93-2.67,1.18c-1.38.61-1.77.96-1.77,3.07v7.71c0,1.08.91,1.99,1.99,1.98h4.71c1.1,0,1.99-.89,1.99-1.98v-10.89c0-1.07-1.14-2.47-2.11-2.01h-.02Zm-.37,11.53c0,.21-.17.39-.38.39,0,0,0,0,0,0h-2.73c-.21,0-.39-.17-.39-.38,0,0,0,0,0,0v-6.17c0-.9.35-.85,1.61-1.51.05-.02.09-.05.15-.08.89-.46,1.75-.82,1.75-.49v8.25h0Zm20.14-9.42l-2.67-1.19-2.11-.93c-.99-.45-2.13.93-2.13,2.01v10.89c0,1.08.91,1.99,1.99,1.98h4.71c1.1,0,1.99-.89,1.99-1.98v-7.71c0-2.1-.4-2.47-1.8-3.07h.02Zm-.91,9.42c0,.21-.17.39-.38.39,0,0,0,0,0,0h-2.73c-.21,0-.39-.17-.39-.38,0,0,0,0,0,0v-8.25c0-.33.86.05,1.77.49.06.05.11.05.16.05,1.26.65,1.61.59,1.61,1.51v6.2h-.04Z" style="fill:#f86700;"/><path d="m80.1,22.08v-2.01c0-1.07-.96-1.85-1.86-2.08l-2.78-.69-4.34-1.06v11.43h2.64v-2.98s3.45,0,3.45,0v2.98s2.89,0,2.89,0v-2.14c0-.89-.54-1.65-1.17-1.9.61-.23,1.17-.82,1.17-1.55h0,0Zm-2.89-.02h-3.48v-2.83s1.74.38,1.74.38l.96.21c.46.11.81.54.81,1.17v1.08h-.02Z" style="fill:#fa6600;"/><path d="m59.82,11.96v2.83l-3.25-1.61v14.48h-2.95v-14.48l-3.25,1.61v-2.83c2.03-1.02,3.69-2.08,4.72-3.15,1.03,1.1,2.69,2.12,4.73,3.15h-.01Zm-29.32,15.7h2.98v-3.28l1.9,3.18,1.86-3.61v3.71h2.8v-11.52h-.98c-.63.18-1.26.35-1.89.54l-2.01,4.94-1.86-4c-.96.2-1.9.4-2.8.56v9.48Zm1.39,29.23h4.7l.02,2.57h-3.57v2.61c.01.7.32,1.13.86,1.5l3.75,2.45v3.61l-6.68-4.74c-.54-.38-.96-1.04-.96-1.68v-4.44c0-1.15.73-1.85,1.86-1.86h.02Zm5.66,0h3.15l1.38,4.26,1.83-4.26h3.21l-3.87,7.88v8.27c-.99-.5-2-1.14-2.99-1.72v-7.04l-2.71-7.39h0Zm11.59,0h5.53v2.34h-3.51c-.51,0-.88.66-.88,1.28v11.72c0,.54.38,1.13.86,1.33l3.53,1.34v2.64c-1.85-.11-3.95-1.1-6.2-2.05-1.04-.43-1.24-.87-1.24-2.32v-14.04c0-1.15.84-2.23,1.91-2.24h0Zm6.65,0h3.12v17.21l3.99-1.35v2.82c-2.58,1.02-5.02,1.84-7.11,1.92v-20.6Zm9.31,0h5.25v2.39h-3.07c-.48-.01-1.01.55-.99,1.02v2.69h3.07v2.49s-3.04-.01-3.04-.01v3.87c0,.65.43,1.08,1.13.67l2.92-1.85v3.18c-1.75,1.09-3.67,2.22-5.43,3.06-.73.34-1.77-.07-1.77-1.54v-14.1c-.02-.88,1.02-1.85,1.94-1.86h0Zm8.06,0h6.62v2.47h-4.26c-.44,0-.8.1-.79.6.02.48.38.65.7.64h2.73c.93,0,1.61.81,1.61,1.85v1.4c0,1.25-.11,1.61-1.09,2.32-2.25,1.63-4.7,3.23-7.18,4.72v-3.42l4.17-2.67c.56-.37.78-.75.79-1.29h-3.38c-.74,0-1.58-.79-1.58-1.55v-3.49c0-1.04.81-1.58,1.67-1.59h-.01Z" style="fill:#f86700;"/></g></g></svg>