<svg xmlns="http://www.w3.org/2000/svg" width="128" height="101" viewBox="0 0 116.08 92.25"><g id="moto"><g id="moto-honda"><path d="m53.93,66.83l-29.22,3.14,5.77,5.63h41.37l-15.34-9.05-2.58.28h0Zm0-23.31l40.24-10.74s5.86-.42,11.68-13.6l-51.92,17.03-40.38,13.18s-3.47,1.13-4.83,2.06c0,0-.94.56-.94,1.88,0,0,.09.99.8,1.69l1.74,1.74,22.04-5.72s-1.36-1.78,1.36-2.16l20.21-5.35h0Zm0,21.01c.05.47.42.89.42.89l-.42.05-30.63,3.47-5.82-5.44,36.44-6.52,31.14-5.53c-5.11,10.04-15.43,10.04-15.43,10.04l-12.85,1.64c-2.16.05-2.77.61-2.86,1.17v.23s0,0,0,0Zm0-17.35l42.44-10.74c-5.02,11.35-15.1,11.72-15.1,11.72l-27.34,5.53-8.96,1.83c-4.32.09-2.44,2.3-2.44,2.3l-26.12,4.46-4.88-4.32,42.4-10.79h0Zm0-22.93L113.26,0s-2.02,5.96-3.28,9.01c0,0-1.55,4.83-7.74,6.75l-48.31,17.07-41.88,14.73s-5.39,1.92-6.28,4.17c0,0-1.27,2.58,2.16,5.49l20.21,18.38h-7.93L3.94,59.66s-3.66-3-3.94-7.27v-.89c.05-.28.05-.56.14-.89,0,0,.7-4.69,7.74-7.55l46.06-18.81h0ZM10.79,78.6H.28v2.58h2.39v7.83H.28v2.67h10.5v-2.67h-2.58v-2.49h7.74v2.49h-2.53v2.67h10.37v-2.67h-2.49v-7.83h2.49v-2.58h-10.41v2.58h2.58v2.58h-7.74v-2.58h2.58v-2.58h0Zm92.25,6.05h2.02l-2.02-3.05-.24-.28-1.83,3.33h2.06Zm0-6.05h4.17l6.28,10.41h2.58v2.67h-11.3v-2.67h2.53l-1.08-1.55h-6.85l-.84,1.55h2.49v2.67h-8.72v-2.67h2.67l4.31-7.83h-2.91v-2.58h6.66Zm-20.12,10.27c2.49-.28,3.94-1.22,3.94-3.66,0-2.81-1.64-3.7-3.94-3.94-.42-.05-.84-.05-1.31-.05h-2.63v7.74h2.11c.66,0,1.27-.05,1.83-.09h0Zm0-10.27h1.69c4.32,0,7.55,2.02,7.55,6.61,0,5.3-3.05,6.38-9.24,6.47h-11.77v-2.67h2.53v-7.83h-2.53v-2.58h11.77Zm-48.12,10.88c2.44-.05,4.36-1.97,4.36-4.32,0-2.49-1.97-4.36-4.36-4.36h-.05c-2.39,0-4.31,1.88-4.31,4.32,0,2.3,1.83,4.36,4.27,4.36h.09,0Zm0-11.54h.14c6.14,0,10.18,2.3,10.18,7.04,0,4.36-3.71,7.27-10.32,7.27h-.19c-6.43,0-10.27-2.49-10.27-7.17s3.8-7.13,10.46-7.13h0Zm21.53.66h-10.36v2.58h2.49v7.83h-2.49v2.67h8.25v-2.67h-2.58v-6.71l7.27,9.38h8.02v-10.51h2.63v-2.58h-8.54v2.58h2.67v6.89l-7.36-9.47h0Z" style="fill-rule:evenodd;"/></g></g></svg>