<svg xmlns="http://www.w3.org/2000/svg" width="128" height="136.5" viewBox="0 0 90.04 96"><g id="moto"><g id="moto-kawasaki"><polygon points="23.79 85.58 27.98 85.58 29.4 90.25 30.88 85.58 34.37 85.58 35.71 90.25 37.24 85.58 41.21 85.58 38.14 95.55 34.23 95.55 32.67 90.66 31.3 95.55 27.25 95.55 23.79 85.58"/><path d="m51.87,92.06h3.66s-.03,1.51,1.56,1.51c1.28,0,1.23-.75,1.23-.75,0,0,.03-.78-1.37-1.01-1.56-.22-4.91-.53-4.91-3.32,0,0-.31-3.41,4.86-3.41,3.66,0,4.89,1.59,4.89,3.46h-3.49c-.08-.53-.53-1.12-1.28-1.12s-1.2.28-1.2.64c0,.47.31.64,2.43.92,2.46.5,3.85,1.12,3.85,3.66s-2.65,3.35-5.03,3.35c-2.37.06-5.19-.75-5.19-3.94Z"/><path d="m66.5,88.99h-3.66s-.78-4.02,5.36-4.02c0,0,4.55-.25,4.8,3.27.25,3.55-.25,5.95.81,7.31h-3.91s-.36-.47-.53-.92c0,0-1.06,1.23-3.29,1.23s-3.52-1.31-3.52-2.99.98-2.93,4.1-3.49c1.26-.22,2.37-.36,2.43-1.06s-.89-.81-1.14-.81c0,0-1.42-.11-1.45,1.48Zm.39,2.82c-.87.36-.42,1.03-.42,1.03,0,0,.42.7,1.45.45,1.48-.39,1.37-2.35,1.37-2.35,0,0-1.54.47-2.4.87Z"/><rect x="86.02" y="81.76" width="4.02" height="2.82"/><rect x="86.02" y="85.58" width="4.02" height="9.97"/><polygon points="78.17 95.55 74.15 95.55 74.15 81.76 78.17 81.76 78.17 87.96 80.21 85.58 84.96 85.58 81.44 89.3 85.54 95.55 80.88 95.55 78.68 92.2 78.17 92.73 78.17 95.55"/><polygon points="0 81.76 4.19 81.76 4.19 85.95 8.38 81.76 13.62 81.76 8.26 87.26 14.02 95.55 8.57 95.55 5.25 90.36 4.19 91.47 4.19 95.55 0 95.55 0 81.76"/><path d="m17.48,88.99h-3.66s-.78-4.02,5.36-4.02c0,0,4.55-.25,4.8,3.27.25,3.55-.25,5.95.81,7.31h-3.91s-.36-.47-.53-.92c0,0-1.03,1.23-3.29,1.23s-3.52-1.31-3.52-2.99.98-2.93,4.1-3.49c1.26-.22,2.37-.36,2.43-1.06s-.89-.81-1.14-.81c0,0-1.42-.11-1.45,1.48Zm.39,2.82c-.87.36-.42,1.03-.42,1.03,0,0,.42.7,1.45.45,1.48-.39,1.37-2.35,1.37-2.35,0,0-1.54.47-2.4.87Z"/><path d="m44.7,88.99h-3.66s-.78-4.02,5.36-4.02c0,0,4.55-.25,4.8,3.27.25,3.55-.25,5.95.81,7.31h-3.91s-.36-.47-.53-.92c0,0-1.06,1.23-3.29,1.23s-3.52-1.31-3.52-2.99.98-2.93,4.1-3.49c1.26-.22,2.37-.36,2.43-1.06s-.89-.81-1.14-.81c0,0-1.42-.11-1.45,1.48Zm.39,2.82c-.87.36-.42,1.03-.42,1.03,0,0,.42.7,1.45.45,1.48-.39,1.37-2.35,1.37-2.35,0,0-1.54.47-2.4.87Z"/><path d="m60.07,40.87h0v-7.05h22.15c-1.61-16.51-13.99-29.9-30-33.12v8.05c9.06,2.32,16.51,8.76,20.03,17.22h-20.03v22.75h20.03c-3.52,8.46-10.97,15-20.03,17.32v8.05c16.11-3.12,28.39-16.61,30-33.22,0,0-22.15,0-22.15,0Z"/><path d="m49,.2c-1.21-.1-2.52-.2-3.93-.2s-2.52.1-3.93.2v74.3c1.31.1,2.72.2,3.93.2,1.11,0,2.52-.1,3.93-.2V.2Z"/><path d="m17.79,48.73h20.03v-22.75h-20.03c3.52-8.46,10.97-14.9,20.03-17.22V.7C21.81,3.83,9.43,17.32,7.82,33.83h22.15v7.05H7.82c1.51,16.51,13.99,30,30,33.22v-8.05c-9.06-2.32-16.51-8.86-20.03-17.32Z"/></g></g></svg>