<svg xmlns="http://www.w3.org/2000/svg" width="128" height="114" viewBox="0 0 104.55 93.33"><g id="moto"><g id="moto-triumph"><path d="m52.28,93.33c.81,0,1.58-.1,2.29-.32.74-.22,1.44-.56,2.08-1.01.62-.44,1.19-.96,1.74-1.62.5-.6.98-1.3,1.45-2.13,0,0,42.87-74.74,43.23-75.4.36-.66.66-1.34.9-2.03.24-.69.4-1.39.49-2.06.1-.7.11-1.4.05-2.06-.03-.35-.18-1.44-.64-2.41-.45-.96-.96-1.56-1.61-2.17-.65-.61-1.82-1.27-2.79-1.59-.55-.18-1.17-.33-1.83-.41-.61-.08-1.28-.12-2.06-.12H8.96c-.77,0-1.44.04-2.06.12-.65.08-1.28.24-1.83.41-.98.32-2.15.98-2.79,1.59-.65.61-1.16,1.21-1.61,2.17C.21,5.27.07,6.35.04,6.7c-.06.66-.04,1.35.05,2.06.09.68.26,1.37.49,2.06.23.69.53,1.37.9,2.03.36.66,43.23,75.4,43.23,75.4.47.83.95,1.53,1.45,2.13.55.66,1.12,1.19,1.74,1.62.64.45,1.34.79,2.08,1.01.71.21,1.48.32,2.29.32" style="fill:#fff;"/><path d="m8.96,2.03c-1.35,0-2.35.13-3.23.43-1.67.56-2.79,1.57-3.34,2.99-.69,1.77-.36,4.17.87,6.42l43.22,75.36c1.63,2.85,3.36,4.06,5.8,4.06s4.18-1.22,5.8-4.06L101.29,11.87c1.23-2.25,1.56-4.65.87-6.42-.55-1.42-1.67-2.43-3.34-2.99-.88-.3-1.88-.43-3.23-.43H8.96Z" style="fill:#221f20;"/><polygon points="91.42 23.64 88.02 29.58 68.96 29.58 83.62 37.24 81.39 41.14 68.96 34.29 68.96 62.82 63.01 73.18 63.01 23.64 91.42 23.64" style="fill:#fff;"/><polygon points="13.13 23.64 16.53 29.58 35.59 29.58 20.93 37.24 23.16 41.14 35.59 34.29 35.59 62.82 41.54 73.18 41.54 23.64 13.13 23.64" style="fill:#fff;"/><path d="m61.54,15.67v-7.74h-1.37c-.51,0-.69.25-1.02.71l-2.12,2.99-2.35-3.71h-1.48c-.49,0-.56.44-.56.71v7.03h1.69v-5.1l2.29,3.43h.72l2.4-3.41v5.08h1.8Z" style="fill:#fff;"/><path d="m65.27,13.28c.27,0,1.23-.03,2.13-.43,1.16-.51,1.74-1.4,1.74-2.65,0-.68-.27-2.28-2.83-2.28h-2.66c-.49,0-.56.45-.56.71v7.03h2.06v-2.39h.11m-.11-1.29v-2.78h.7c1.3,0,1.49.76,1.49,1.22,0,1.49-1.73,1.56-2.08,1.56h-.11Z" style="fill:#fff;"/><path d="m51.08,7.93h-1.5c-.49,0-.56.45-.56.71v4.17c0,1.4-.76,1.69-1.39,1.69s-1.39-.29-1.39-1.69v-4.88h-1.5c-.49,0-.56.45-.56.71v4.33c0,1.36.6,2.99,3.45,2.99s3.44-1.62,3.44-2.99v-5.04Z" style="fill:#fff;"/><path d="m40.57,15.67h2.06v-7.74h-1.5c-.49,0-.56.45-.56.71v7.03Z" style="fill:#fff;"/><path d="m77.63,15.67v-7.74h-1.49c-.49,0-.56.45-.56.71v1.29h-.04c-.95.19-1.91.56-2.93,1.13l-.08.04v-3.17h-1.5c-.49,0-.56.45-.56.71v3.83l-.02.02c-.32.24-.61.47-.88.68l-.06.05c-5.33,4.18-10.64,6.07-17.23,6.12h-.2c-3.03,0-5.94-.5-8.42-1.45-2.88-1.11-5.06-2.77-6.47-4.92l-.03-.06.06-.02c1.19-.5,1.8-1.4,1.8-2.67,0-.69-.27-2.28-2.83-2.28h-2.66c-.49,0-.56.45-.56.71v7.03h2.08v-2.39h.05s.05,0,.12,0h.03l.02.02c2.71,3.25,7.86,7.12,17.01,7.12,6.85,0,12.43-1.91,18.1-6.2l.08-.06v1.51h2.06v-3.01l.02-.02c1.1-.71,2.04-1.11,2.97-1.25h.06s0,4.28,0,4.28h2.06Zm-42.48-3.67h-.11v-2.78h.68c1.29,0,1.48.76,1.48,1.22,0,1.49-1.71,1.57-2.05,1.57" style="fill:#fff;"/><path d="m32.03,7.93h-6.44c-.46,0-.56.39-.56.71v1.13h2.46v5.9h2.07v-5.9h1.9c.5,0,.57-.45.57-.71v-1.13Z" style="fill:#fff;"/></g></g></svg>