<svg xmlns="http://www.w3.org/2000/svg" xmlns:xlink="http://www.w3.org/1999/xlink" width="128" height="27" viewBox="0 0 179.03 38.19"><defs><radialGradient id="Dégradé_sans_nom_61" cx="21997.13" cy="-21586.04" fx="21997.13" fy="-21586.04" r="48.45" gradientTransform="translate(-9885.54 -9696.44) scale(.45 -.45)" gradientUnits="userSpaceOnUse"><stop offset="0" stop-color="#ef8284"/><stop offset=".1" stop-color="#ef8081"/><stop offset=".21" stop-color="#ee7b79"/><stop offset=".34" stop-color="#ed716b"/><stop offset=".46" stop-color="#eb6057"/><stop offset=".59" stop-color="#e84c3e"/><stop offset=".72" stop-color="#e5332a"/><stop offset="1" stop-color="#e5332a"/></radialGradient><radialGradient id="Dégradé_sans_nom_59" cx="-221.27" cy="-2827.97" fx="-221.27" fy="-2827.97" r="225.82" gradientTransform="translate(51.03 -803.02) scale(.28 -.28)" gradientUnits="userSpaceOnUse"><stop offset=".21" stop-color="#9ca4bb"/><stop offset=".29" stop-color="#b6bdd0"/><stop offset=".45" stop-color="#f2f3f9"/><stop offset=".53" stop-color="#f2f3f9"/><stop offset=".54" stop-color="#f2f3f9"/><stop offset=".64" stop-color="#a8b2c8"/><stop offset=".74" stop-color="#343b53"/><stop offset=".76" stop-color="#3a4159"/><stop offset=".79" stop-color="#485069"/><stop offset=".82" stop-color="#616981"/><stop offset=".86" stop-color="#868fa4"/><stop offset=".9" stop-color="#bbc4d5"/><stop offset=".93" stop-color="#dadee8"/><stop offset=".95" stop-color="#f2f3f9"/></radialGradient><radialGradient id="Dégradé_sans_nom_57" cx="-191.99" cy="-2857.25" fx="-191.99" fy="-2857.25" r="173.61" gradientTransform="translate(51.03 -803.02) scale(.28 -.28)" gradientUnits="userSpaceOnUse"><stop offset=".21" stop-color="#99a1b7"/><stop offset=".31" stop-color="#bdc1d2"/><stop offset=".46" stop-color="#f2f3f9"/><stop offset=".54" stop-color="#f2f3f9"/><stop offset=".55" stop-color="#f2f3f9"/><stop offset=".63" stop-color="#a1abc0"/><stop offset=".74" stop-color="#485370"/><stop offset=".76" stop-color="#4e5975"/><stop offset=".79" stop-color="#606a83"/><stop offset=".83" stop-color="#7e859f"/><stop offset=".87" stop-color="#afb4c6"/><stop offset=".88" stop-color="#c9ccda"/><stop offset=".91" stop-color="#dcdde8"/><stop offset=".94" stop-color="#f2f3f9"/></radialGradient><linearGradient id="Dégradé_sans_nom_55" x1="-2.05" y1="-936.69" x2="23.54" y2="-962.29" gradientTransform="translate(8.5 -930.5) scale(1 -1)" gradientUnits="userSpaceOnUse"><stop offset="0" stop-color="#edecec"/><stop offset=".64" stop-color="#676767"/><stop offset="1" stop-color="#e6e5e5"/></linearGradient><linearGradient id="Dégradé_sans_nom_53" x1="12.15" y1="-943.46" x2="9.32" y2="-943.46" gradientTransform="translate(8.5 -930.5) scale(1 -1)" gradientUnits="userSpaceOnUse"><stop offset="0" stop-color="#fff"/><stop offset=".18" stop-color="#cdcccb"/><stop offset=".37" stop-color="#9e9d9d"/><stop offset=".55" stop-color="#7c7c7c"/><stop offset=".72" stop-color="#636363"/><stop offset=".88" stop-color="#535252"/><stop offset="1" stop-color="#4e4d4d"/></linearGradient><linearGradient id="Dégradé_sans_nom_51" x1="8.93" y1="-937.62" x2="8.93" y2="-944.27" gradientTransform="translate(8.5 -930.5) scale(1 -1)" gradientUnits="userSpaceOnUse"><stop offset="0" stop-color="#bcbec0"/><stop offset=".11" stop-color="#c3c5c6"/><stop offset=".28" stop-color="#d8d8d9"/><stop offset=".48" stop-color="#fff"/><stop offset="1" stop-color="#e7e6e8"/></linearGradient><linearGradient id="Dégradé_sans_nom_49" x1="12.15" y1="-943.46" x2="9.32" y2="-943.46" gradientTransform="translate(8.5 -930.5) scale(1 -1)" gradientUnits="userSpaceOnUse"><stop offset="0" stop-color="#f1f1f1"/><stop offset=".06" stop-color="#e6e5e5"/><stop offset=".27" stop-color="#b7b7b7"/><stop offset=".48" stop-color="#959594"/><stop offset=".68" stop-color="#7b7b7b"/><stop offset=".86" stop-color="#6c6c6c"/><stop offset="1" stop-color="#676767"/></linearGradient><linearGradient id="Dégradé_sans_nom_47" x1="12.6" y1="-937.43" x2="12.6" y2="-945.12" gradientTransform="translate(8.5 -930.5) scale(1 -1)" gradientUnits="userSpaceOnUse"><stop offset="0" stop-color="#4e4d4d"/><stop offset=".07" stop-color="#535252"/><stop offset=".15" stop-color="#616262"/><stop offset=".24" stop-color="#7a7a7a"/><stop offset=".34" stop-color="#9c9b9b"/><stop offset=".44" stop-color="#c8c8c8"/><stop offset=".54" stop-color="#fdfdfd"/><stop offset=".54" stop-color="#fff"/><stop offset=".63" stop-color="#cac9c9"/><stop offset=".71" stop-color="#9d9d9d"/><stop offset=".8" stop-color="#7b7b7b"/><stop offset=".87" stop-color="#616262"/><stop offset=".94" stop-color="#535252"/><stop offset="1" stop-color="#4e4d4d"/></linearGradient><linearGradient id="Dégradé_sans_nom_45" x1="5.78" y1="-952.99" x2="5.53" y2="-952.54" gradientTransform="translate(8.5 -930.5) scale(1 -1)" gradientUnits="userSpaceOnUse"><stop offset="0" stop-color="#fff"/><stop offset="1" stop-color="#676767"/></linearGradient><linearGradient id="Dégradé_sans_nom_43" x1="-2.59" y1="-956.55" x2="-2.48" y2="-956.67" gradientTransform="translate(8.5 -930.5) scale(1 -1)" gradientUnits="userSpaceOnUse"><stop offset="0" stop-color="#fff"/><stop offset=".08" stop-color="#e3e4e3"/><stop offset=".25" stop-color="#aeafae"/><stop offset=".42" stop-color="#828282"/><stop offset=".59" stop-color="#616160"/><stop offset=".74" stop-color="#484747"/><stop offset=".88" stop-color="#383838"/><stop offset="1" stop-color="#333"/></linearGradient><linearGradient id="Dégradé_sans_nom_41" x1="7.78" y1="-953.77" x2="1.66" y2="-956.59" gradientTransform="translate(8.5 -930.5) scale(1 -1)" gradientUnits="userSpaceOnUse"><stop offset="0" stop-color="#1a1a1a"/><stop offset=".12" stop-color="#1d1d1d"/><stop offset=".23" stop-color="#282828"/><stop offset=".33" stop-color="#3b3b3b"/><stop offset=".43" stop-color="#565555"/><stop offset=".53" stop-color="#777"/><stop offset=".63" stop-color="#9d9d9d"/><stop offset=".63" stop-color="#9a9a9a"/><stop offset=".76" stop-color="#656564"/><stop offset=".86" stop-color="#3b3b3b"/><stop offset=".95" stop-color="#222323"/><stop offset="1" stop-color="#1a1a1a"/></linearGradient><linearGradient id="Dégradé_sans_nom_39" x1="5.49" y1="-952.68" x2="5.02" y2="-951.61" gradientTransform="translate(8.5 -930.5) scale(1 -1)" gradientUnits="userSpaceOnUse"><stop offset="0" stop-color="#676767"/><stop offset="1" stop-color="#333"/></linearGradient><linearGradient id="Dégradé_sans_nom_37" x1="5.59" y1="-950.46" x2="-.69" y2="-953.78" gradientTransform="translate(8.5 -930.5) scale(1 -1)" gradientUnits="userSpaceOnUse"><stop offset="0" stop-color="#dfdfdf"/><stop offset=".15" stop-color="#d5d5d5"/><stop offset=".41" stop-color="#bbbbba"/><stop offset=".59" stop-color="#a5a4a5"/><stop offset=".62" stop-color="#bdbdbd"/><stop offset=".68" stop-color="#dadada"/><stop offset=".73" stop-color="#eee"/><stop offset=".78" stop-color="#fbfbfb"/><stop offset=".83" stop-color="#fff"/><stop offset="1" stop-color="#acacac"/></linearGradient><linearGradient id="Dégradé_sans_nom_35" x1="18.19" y1="-953.01" x2="17.07" y2="-952.28" gradientTransform="translate(8.5 -930.5) scale(1 -1)" gradientUnits="userSpaceOnUse"><stop offset="0" stop-color="#fff"/><stop offset="0" stop-color="#fff"/><stop offset=".25" stop-color="#c8c8c8"/><stop offset=".49" stop-color="#9d9d9d"/><stop offset=".7" stop-color="#7f7f7f"/><stop offset=".87" stop-color="#6e6e6e"/><stop offset="1" stop-color="#676767"/></linearGradient><linearGradient id="Dégradé_sans_nom_33" x1="16.26" y1="-951.88" x2="22.02" y2="-951.88" gradientTransform="translate(8.5 -930.5) scale(1 -1)" gradientUnits="userSpaceOnUse"><stop offset="0" stop-color="#dfdfdf"/><stop offset=".15" stop-color="#d5d5d5"/><stop offset=".41" stop-color="#bbbbba"/><stop offset=".59" stop-color="#a5a4a5"/><stop offset=".65" stop-color="#bdbdbd"/><stop offset=".74" stop-color="#dadada"/><stop offset=".83" stop-color="#eee"/><stop offset=".91" stop-color="#fbfbfb"/><stop offset="1" stop-color="#fff"/></linearGradient><linearGradient id="Dégradé_sans_nom_31" x1="17.35" y1="-954.27" x2="16.24" y2="-953.54" gradientTransform="translate(8.5 -930.5) scale(1 -1)" gradientUnits="userSpaceOnUse"><stop offset="0" stop-color="#fff"/><stop offset=".12" stop-color="#f8f8f8"/><stop offset=".31" stop-color="#e3e4e3"/><stop offset=".52" stop-color="#c5c5c5"/><stop offset=".76" stop-color="#989898"/><stop offset="1" stop-color="#676767"/></linearGradient><linearGradient id="Dégradé_sans_nom_29" x1="25.08" y1="-956.67" x2="24.94" y2="-956.73" gradientTransform="translate(8.5 -930.5) scale(1 -1)" gradientUnits="userSpaceOnUse"><stop offset="0" stop-color="#cccbcb"/><stop offset=".12" stop-color="#b8b8b8"/><stop offset=".32" stop-color="#9f9f9f"/><stop offset=".53" stop-color="#8c8c8c"/><stop offset=".75" stop-color="#828282"/><stop offset="1" stop-color="gray"/></linearGradient><linearGradient id="Dégradé_sans_nom_13" x1="13.51" y1="-955.63" x2="20.39" y2="-955.63" gradientTransform="translate(8.5 -930.5) scale(1 -1)" gradientUnits="userSpaceOnUse"><stop offset="0" stop-color="#989898"/><stop offset=".09" stop-color="#939393"/><stop offset=".19" stop-color="#848585"/><stop offset=".3" stop-color="#707070"/><stop offset=".41" stop-color="#4f4f4f"/><stop offset=".52" stop-color="#262626"/><stop offset=".55" stop-color="#1a1a1a"/><stop offset=".6" stop-color="#202020"/><stop offset=".66" stop-color="#323232"/><stop offset=".73" stop-color="#4e4e4e"/><stop offset=".8" stop-color="#767676"/><stop offset=".88" stop-color="#a7a7a7"/><stop offset=".97" stop-color="#e6e5e5"/><stop offset="1" stop-color="#fff"/></linearGradient><linearGradient id="Dégradé_sans_nom_9" x1="11.88" y1="-932.96" x2="9.57" y2="-932.96" gradientTransform="translate(8.5 -930.5) scale(1 -1)" gradientUnits="userSpaceOnUse"><stop offset="0" stop-color="#cccbcb"/><stop offset="1" stop-color="#3d3d3d"/></linearGradient><linearGradient id="Dégradé_sans_nom_27" x1="28.56" y1="-952.97" x2="7.1" y2="-931.51" gradientTransform="translate(8.5 -930.5) scale(1 -1)" gradientUnits="userSpaceOnUse"><stop offset="0" stop-color="#fff"/><stop offset="1" stop-color="#241a16"/></linearGradient><linearGradient id="Dégradé_sans_nom_12" x1="24.75" y1="-958.48" x2="25.27" y2="-957.39" gradientTransform="translate(8.5 -930.5) scale(1 -1)" gradientUnits="userSpaceOnUse"><stop offset="0" stop-color="#fff"/><stop offset=".14" stop-color="#fafafa"/><stop offset=".31" stop-color="#ebebeb"/><stop offset=".48" stop-color="#d4d4d4"/><stop offset=".67" stop-color="#b3b3b3"/><stop offset=".86" stop-color="#898989"/><stop offset="1" stop-color="#676767"/></linearGradient><linearGradient id="Dégradé_sans_nom_12-2" x1="24.65" y1="-958.44" x2="25.18" y2="-957.34" xlink:href="#Dégradé_sans_nom_12"/><linearGradient id="Dégradé_sans_nom_27-2" x1="17" y1="-964.53" x2="-4.46" y2="-943.07" xlink:href="#Dégradé_sans_nom_27"/><linearGradient id="Dégradé_sans_nom_11" x1="-3.13" y1="-958.56" x2="-3.78" y2="-957.18" gradientTransform="translate(8.5 -930.5) scale(1 -1)" gradientUnits="userSpaceOnUse"><stop offset="0" stop-color="#f1f1f1"/><stop offset="1" stop-color="#1a1a1a"/></linearGradient><linearGradient id="Dégradé_sans_nom_11-2" x1="-3.21" y1="-958.59" x2="-3.85" y2="-957.21" xlink:href="#Dégradé_sans_nom_11"/><linearGradient id="Dégradé_sans_nom_27-3" x1="19.82" y1="-961.71" x2="-1.64" y2="-940.25" xlink:href="#Dégradé_sans_nom_27"/><linearGradient id="Dégradé_sans_nom_9-2" x1="11.88" y1="-932.98" x2="9.57" y2="-932.98" xlink:href="#Dégradé_sans_nom_9"/></defs><g id="moto"><g id="moto-yamaha"><polygon points="136.16 3.01 136.16 35.04 142.7 35.04 142.7 21.63 148.38 21.63 148.38 35.04 154.92 35.04 154.92 3.01 148.43 3.01 148.43 15.8 142.7 15.8 142.7 3.01 136.16 3.01" style="fill:#e5332a;"/><polygon points="85.6 3.01 85.6 35.04 91.57 35.04 91.57 14.7 95.1 35.04 99.11 35.04 102.69 14.7 102.69 35.04 108.71 35.04 108.71 3.01 99.78 3.01 97.15 18.43 94.53 3.01 85.6 3.01" style="fill:#e5332a;"/><polygon points="47.88 3.01 51.85 17.33 55.86 3.01 62.4 3.01 55.33 24.54 55.33 35.04 48.41 35.04 48.41 24.54 41.34 3.01 47.88 3.01" style="fill:#e5332a;"/><path d="m76.24,3.01h-8.69l-5.68,32.03h6.49l1.1-7.64h4.92l1.1,7.64h6.54l-5.78-32.03Zm-4.34,7.26l1.62,11.36h-3.25l1.62-11.36Z" style="fill:#e5332a;"/><path d="m126.75,3.01h-8.69l-5.68,32.03h6.49l1.1-7.64h4.92l1.1,7.64h6.54l-5.78-32.03Zm-4.34,7.26l1.62,11.36h-3.25l1.62-11.36Z" style="fill:#e5332a;"/><path d="m173.01,3.01h-8.69l-5.68,32.03h6.49l1.1-7.64h4.92l1.1,7.64h6.54l-5.78-32.03Zm-4.34,7.26l1.62,11.36h-3.25l1.62-11.36Z" style="fill:#e5332a;"/><path d="m.29,19C.29,8.55,8.78.05,19.24.05c10.46,0,18.95,8.5,18.95,18.95s-8.5,18.95-18.95,18.95S.29,29.46.29,19Z" style="fill:url(#Dégradé_sans_nom_61);"/><path d="m19.24,1.38c10.07,0,18.28,8.16,18.28,18.28h0c0,10.07-8.16,18.28-18.28,18.28h0C9.17,37.95.95,29.79.95,19.67h0C1,9.55,9.17,1.38,19.24,1.38ZM6.78,28.12c2.72,3.96,7.3,6.59,12.46,6.59h0c5.16,0,9.74-2.63,12.46-6.59h0l.05-.05,2.58.57h.05c.1,0,.19-.05.24-.14h0s.05-.1.05-.14h0s0-.14-.05-.19h0l-1.81-1.91v-.05c.95-1.96,1.48-4.2,1.48-6.54h0c0-7.92-6.16-14.47-13.94-15.04h-.05l-.81-2.53c0-.14-.1-.19-.24-.19h0c-.14,0-.24.1-.29.19h0l-.81,2.53h-.05c-7.78.57-13.94,7.07-13.94,14.99h0c0,2.34.53,4.58,1.48,6.54h0l.05.05-1.77,1.96s-.05.1-.05.19h0s0,.1.05.14h0c.05.1.14.14.24.14h.05l2.58-.53h0Z"/><path d="m20.48,32.61v-8.88l-1.24-.72-1.24.72v8.88h-1.67v-7.88l-1.43.81c-.48.29-.95.38-1.48.38h0c-.38,0-.76-.1-1.15-.24h0c-.24-.1-.48-.14-.72-.14h0c-.29,0-.62.1-.91.24h0c-.53.29-.81.81-.91,1.38h0v.05l-5.44,1.29h-.05s-.14-.05-.14-.1h0s-.05-.05-.05-.1h0s0-.1.05-.1h0l3.87-4.11h.05c.24.1.48.14.72.14h0c.29,0,.62-.1.91-.24h0c.53-.29.81-.81.91-1.34h0c.1-.86.62-1.72,1.43-2.2h0l1.43-.81-6.83-3.96.86-1.43,7.69,4.44,1.24-.72v-1.43l-7.69-4.44.86-1.43,6.83,3.96v-1.62c0-.95.48-1.81,1.15-2.34h0c.43-.33.72-.86.72-1.43h0c0-.57-.29-1.15-.72-1.48h0l-.1-.14,1.67-5.39c0-.1.1-.14.19-.14h0c.1,0,.14.05.19.14h0l1.58,5.39-.05.05c-.43.33-.72.86-.72,1.48h0c0,.57.29,1.15.72,1.43h0c.72.53,1.15,1.38,1.15,2.34h0v1.62l6.83-3.96.86,1.43-7.69,4.44v1.43l1.24.72,7.69-4.44.86,1.43-6.83,3.96,1.43.81c.81.48,1.34,1.29,1.43,2.2h0c.05.53.38,1.05.91,1.34h0c.29.14.62.24.91.24h0c.24,0,.48-.05.72-.14h.05l3.82,4.15h0s.05.1.05.14h0v.1h0s-.1.1-.14.1h-.05l-5.49-1.29v-.05c-.05-.53-.38-1.05-.91-1.38h0c-.29-.14-.62-.24-.91-.24h0c-.24,0-.48.05-.72.14h0c-.38.14-.76.24-1.15.24h0c-.48,0-1-.14-1.48-.38h0l-1.43-.81v7.88h-1.67Zm1.67-11.27v1.43l2.24,1.29c.19.1.43.19.62.19h0c.43,0,.86-.24,1.1-.62h0c.1-.19.19-.43.19-.62h0c0-.43-.24-.86-.62-1.1h0l-2.24-1.29-1.29.72h0Zm-9.31.57c-.38.24-.62.67-.62,1.1h0c0,.19.05.43.19.62h0c.24.38.67.62,1.1.62h0c.19,0,.43-.05.62-.19h0l2.24-1.29v-1.43l-1.24-.72-2.29,1.29h0Zm6.4-.72l.05-.05-.05.05h0Zm-1.24-2.29v1.43l1.24.72,1.24-.72v-1.43l-1.24-.72-1.24.72h0Zm0-3.34l1.24.72,1.24-.72v-2.63c0-.67-.57-1.24-1.24-1.24h0c-.67,0-1.24.57-1.24,1.24h0v2.63h0Z"/><path d="m19.24,1.15C9.21,1.15,1.05,9.31,1.05,19.34s8.16,18.19,18.19,18.19,18.19-8.16,18.19-18.19c0-10.03-8.12-18.19-18.19-18.19Zm15.09,27.31l-2.53-.57c-2.72,4.01-7.3,6.64-12.51,6.64s-9.79-2.63-12.51-6.64l-2.53.57c-.14,0-.29-.05-.38-.19-.1-.14-.05-.29,0-.43l1.77-1.91c-.95-2.01-1.48-4.2-1.48-6.59,0-7.97,6.21-14.51,14.04-15.13l.76-2.48c.05-.14.19-.24.33-.24s.29.1.33.24l.76,2.48c7.83.57,14.04,7.11,14.04,15.13,0,2.34-.53,4.58-1.48,6.59l1.77,1.91c.1.1.1.29.05.43s-.29.19-.43.19Z"/><path d="m34.33,27.98l-3.82-4.06c-.53.24-1.15.19-1.72-.1-.53-.29-.86-.86-.95-1.43h0c-.1-.86-.57-1.67-1.38-2.15l-1.53-.91,6.87-3.96-.76-1.34-7.64,4.39-1.34-.76v-1.53l7.64-4.39-.76-1.34-6.87,3.96v-1.77c0-.95-.43-1.77-1.15-2.29h0c-.48-.33-.76-.91-.76-1.53s.29-1.19.76-1.53l-1.58-5.25s-.05-.05-.1-.05-.1.05-.1.05l-1.62,5.35c.48.33.76.91.76,1.53s-.29,1.19-.76,1.53h0c-.72.53-1.15,1.34-1.15,2.29v1.77l-6.83-4.01-.76,1.34,7.64,4.39v1.53l-1.34.76-7.64-4.39-.76,1.29,6.87,3.96-1.53.91c-.81.48-1.29,1.29-1.38,2.15h0c-.05.57-.38,1.1-.95,1.43-.53.29-1.15.33-1.72.1l-3.82,4.06s-.05.1,0,.1c0,.05.05.05.1.05l5.44-1.24c.05-.57.38-1.1.95-1.43.53-.29,1.15-.33,1.67-.1h0c.81.33,1.72.33,2.53-.14l1.53-.91v7.92h1.53v-8.83l1.34-.76,1.34.76v8.83h1.53v-7.92l1.53.91c.81.48,1.77.48,2.53.14h0c.53-.24,1.15-.19,1.67.1.53.33.86.86.95,1.43l5.44,1.24s.1,0,.1-.05c.05-.05.05-.1,0-.1Zm-15.09-7.11l-1.34-.76v-1.53l1.34-.76,1.34.76v1.53l-1.34.76Zm-1.34-8.21c0-.72.57-1.34,1.34-1.34s1.34.57,1.34,1.34v2.67l-1.34.76-1.34-.76v-2.67h0Zm-3.82,11.22c-.62.38-1.43.14-1.81-.48s-.14-1.43.48-1.81l2.29-1.34,1.34.76v1.53l-2.29,1.34Zm12.13-.48c-.38.62-1.19.86-1.81.48l-2.29-1.34v-1.53l1.34-.76,2.29,1.34c.62.33.86,1.15.48,1.81Z"/><path d="m19.24.81C9.21.81,1.05,8.98,1.05,19s8.16,18.19,18.19,18.19,18.19-8.16,18.19-18.19c0-10.07-8.12-18.19-18.19-18.19Zm15.09,27.26l-2.53-.57c-2.77,4.01-7.35,6.64-12.56,6.64s-9.79-2.63-12.51-6.64l-2.53.57c-.14,0-.29-.05-.38-.19-.1-.14-.05-.29,0-.43l1.77-1.91c-.95-2.01-1.48-4.2-1.48-6.59,0-7.97,6.16-14.51,14.04-15.09l.76-2.48c.05-.14.19-.24.33-.24s.29.1.33.24l.76,2.48c7.88.57,14.08,7.11,14.08,15.13,0,2.34-.53,4.58-1.48,6.59l1.77,1.91c.1.1.1.29.05.43-.14.1-.29.19-.43.14Z" style="fill:url(#Dégradé_sans_nom_59);"/><path d="m34.33,27.59l-3.82-4.06c-.53.24-1.15.19-1.72-.1-.53-.29-.86-.86-.95-1.43h0c-.1-.86-.57-1.67-1.38-2.15l-1.53-.91,6.87-3.96-.76-1.34-7.64,4.39-1.34-.76v-1.53l7.64-4.39-.76-1.34-6.87,3.96v-1.77c0-.95-.43-1.77-1.15-2.29h0c-.48-.33-.76-.91-.76-1.53s.29-1.19.76-1.53l-1.58-5.25s-.05-.05-.1-.05-.1.05-.1.05l-1.62,5.35c.48.33.76.91.76,1.53s-.29,1.19-.76,1.53h0c-.72.53-1.15,1.34-1.15,2.29v1.77l-6.83-4.01-.76,1.34,7.64,4.39v1.53l-1.34.76-7.64-4.39-.76,1.34,6.87,3.96-1.53.91c-.81.48-1.29,1.29-1.38,2.15h0c-.05.57-.38,1.1-.95,1.43-.53.29-1.15.33-1.72.1l-3.82,4.06s-.05.1,0,.1c0,.05.05.05.1.05l5.44-1.24c.05-.57.38-1.1.95-1.43.53-.29,1.15-.33,1.67-.1h0c.81.33,1.72.33,2.53-.14l1.53-.91v7.92h1.53v-8.83l1.34-.76,1.34.76v8.83h1.53v-7.97l1.53.91c.81.48,1.77.48,2.53.14h0c.53-.24,1.15-.19,1.67.1.53.33.86.86.95,1.43l5.44,1.24s.1,0,.1-.05t0-.1Zm-15.09-7.07l-1.34-.76v-1.53l1.34-.76,1.34.76v1.53l-1.34.76Zm-1.34-8.26c0-.72.57-1.34,1.34-1.34s1.34.57,1.34,1.34v2.67l-1.34.76-1.34-.76v-2.67h0Zm-3.82,11.22c-.62.38-1.43.14-1.81-.48s-.14-1.43.48-1.81l2.29-1.34,1.34.76v1.53l-2.29,1.34Zm12.13-.48c-.38.62-1.19.86-1.81.48l-2.29-1.34v-1.53l1.34-.76,2.29,1.34c.62.38.86,1.19.48,1.81Z" style="fill:url(#Dégradé_sans_nom_57);"/><g style="fill:none; opacity:.4;"><path d="m19.24.81C9.21.81,1.05,8.98,1.05,19s8.16,18.19,18.19,18.19,18.19-8.16,18.19-18.19c0-10.07-8.12-18.19-18.19-18.19Zm15.09,27.26l-2.53-.57c-2.77,4.01-7.35,6.64-12.56,6.64s-9.79-2.63-12.51-6.64l-2.53.57c-.14,0-.29-.05-.38-.19-.1-.14-.05-.29,0-.43l1.77-1.91c-.95-2.01-1.48-4.2-1.48-6.59,0-7.97,6.16-14.51,14.04-15.09l.76-2.48c.05-.14.19-.24.33-.24s.29.1.33.24l.76,2.48c7.88.57,14.08,7.11,14.08,15.13,0,2.34-.53,4.58-1.48,6.59l1.77,1.91c.1.1.1.29.05.43-.14.1-.29.19-.43.14Z" style="fill:#fff;"/><g style="fill:none; opacity:.81;"><path d="m19.24.81C9.21.81,1.05,8.98,1.05,19s8.16,18.19,18.19,18.19,18.19-8.16,18.19-18.19c0-10.07-8.12-18.19-18.19-18.19Zm15.09,27.26l-2.53-.57c-2.77,4.01-7.35,6.64-12.56,6.64s-9.79-2.63-12.51-6.64l-2.53.57c-.14,0-.29-.05-.38-.19-.1-.14-.05-.29,0-.43l1.77-1.91c-.95-2.01-1.48-4.2-1.48-6.59,0-7.97,6.16-14.51,14.04-15.09l.76-2.48c.05-.14.19-.24.33-.24s.29.1.33.24l.76,2.48c7.88.57,14.08,7.11,14.08,15.13,0,2.34-.53,4.58-1.48,6.59l1.77,1.91c.1.1.1.29.05.43-.14.1-.29.19-.43.14Z" style="fill:#303234;"/></g></g><g style="fill:none; opacity:.35;"><path d="m34.33,27.59l-3.82-4.06c-.53.24-1.15.19-1.72-.1-.53-.29-.86-.86-.95-1.43h0c-.1-.86-.57-1.67-1.38-2.15l-1.53-.91,6.87-3.96-.76-1.34-7.64,4.39-1.34-.76v-1.53l7.64-4.39-.76-1.34-6.87,3.96v-1.77c0-.95-.43-1.77-1.15-2.29h0c-.48-.33-.76-.91-.76-1.53s.29-1.19.76-1.53l-1.58-5.25s-.05-.05-.1-.05-.1.05-.1.05l-1.62,5.35c.48.33.76.91.76,1.53s-.29,1.19-.76,1.53h0c-.72.53-1.15,1.34-1.15,2.29v1.77l-6.83-4.01-.76,1.34,7.64,4.39v1.53l-1.34.76-7.64-4.39-.76,1.34,6.87,3.96-1.53.91c-.81.48-1.29,1.29-1.38,2.15h0c-.05.57-.38,1.1-.95,1.43-.53.29-1.15.33-1.72.1l-3.82,4.06s-.05.1,0,.1c0,.05.05.05.1.05l5.44-1.24c.05-.57.38-1.1.95-1.43.53-.29,1.15-.33,1.67-.1h0c.81.33,1.72.33,2.53-.14l1.53-.91v7.92h1.53v-8.83l1.34-.76,1.34.76v8.83h1.53v-7.97l1.53.91c.81.48,1.77.48,2.53.14h0c.53-.24,1.15-.19,1.67.1.53.33.86.86.95,1.43l5.44,1.24s.1,0,.1-.05t0-.1Zm-15.09-7.07l-1.34-.76v-1.53l1.34-.76,1.34.76v1.53l-1.34.76Zm-1.34-8.26c0-.72.57-1.34,1.34-1.34s1.34.57,1.34,1.34v2.67l-1.34.76-1.34-.76v-2.67h0Zm-3.82,11.22c-.62.38-1.43.14-1.81-.48s-.14-1.43.48-1.81l2.29-1.34,1.34.76v1.53l-2.29,1.34Zm12.13-.48c-.38.62-1.19.86-1.81.48l-2.29-1.34v-1.53l1.34-.76,2.29,1.34c.62.38.86,1.19.48,1.81Z" style="fill:#fff;"/><g style="fill:none; opacity:.6;"><path d="m34.33,27.59l-3.82-4.06c-.53.24-1.15.19-1.72-.1-.53-.29-.86-.86-.95-1.43h0c-.1-.86-.57-1.67-1.38-2.15l-1.53-.91,6.87-3.96-.76-1.34-7.64,4.39-1.34-.76v-1.53l7.64-4.39-.76-1.34-6.87,3.96v-1.77c0-.95-.43-1.77-1.15-2.29h0c-.48-.33-.76-.91-.76-1.53s.29-1.19.76-1.53l-1.58-5.25s-.05-.05-.1-.05-.1.05-.1.05l-1.62,5.35c.48.33.76.91.76,1.53s-.29,1.19-.76,1.53h0c-.72.53-1.15,1.34-1.15,2.29v1.77l-6.83-4.01-.76,1.34,7.64,4.39v1.53l-1.34.76-7.64-4.39-.76,1.34,6.87,3.96-1.53.91c-.81.48-1.29,1.29-1.38,2.15h0c-.05.57-.38,1.1-.95,1.43-.53.29-1.15.33-1.72.1l-3.82,4.06s-.05.1,0,.1c0,.05.05.05.1.05l5.44-1.24c.05-.57.38-1.1.95-1.43.53-.29,1.15-.33,1.67-.1h0c.81.33,1.72.33,2.53-.14l1.53-.91v7.92h1.53v-8.83l1.34-.76,1.34.76v8.83h1.53v-7.97l1.53.91c.81.48,1.77.48,2.53.14h0c.53-.24,1.15-.19,1.67.1.53.33.86.86.95,1.43l5.44,1.24s.1,0,.1-.05t0-.1Zm-15.09-7.07l-1.34-.76v-1.53l1.34-.76,1.34.76v1.53l-1.34.76Zm-1.34-8.26c0-.72.57-1.34,1.34-1.34s1.34.57,1.34,1.34v2.67l-1.34.76-1.34-.76v-2.67h0Zm-3.82,11.22c-.62.38-1.43.14-1.81-.48s-.14-1.43.48-1.81l2.29-1.34,1.34.76v1.53l-2.29,1.34Zm12.13-.48c-.38.62-1.19.86-1.81.48l-2.29-1.34v-1.53l1.34-.76,2.29,1.34c.62.38.86,1.19.48,1.81Z" style="fill:#48474b;"/></g></g><path d="m19.24.81C9.21.81,1.05,8.98,1.05,19s8.16,18.19,18.19,18.19,18.19-8.16,18.19-18.19c0-10.07-8.12-18.19-18.19-18.19Zm12.79,30.98c-3.29,3.29-7.78,5.3-12.79,5.3s-9.5-2.01-12.79-5.3c-3.25-3.29-5.3-7.83-5.3-12.79S3.15,9.5,6.45,6.21C9.74,2.91,14.27.91,19.24.91s9.5,2.01,12.79,5.3c3.29,3.29,5.3,7.78,5.3,12.79s-2.01,9.5-5.3,12.79Z" style="fill:url(#Dégradé_sans_nom_55);"/><polygon points="19.24 15.8 19.24 15.71 17.9 14.94 17.86 14.99 19.24 15.8" style="fill:#eaeaea;"/><path d="m19.24,10.98v-.1c-.76,0-1.43.62-1.43,1.43v2.72h0l.1-.05h0v-2.67c0-.76.62-1.34,1.34-1.34Z" style="fill:url(#Dégradé_sans_nom_53);"/><polygon points="19.24 17.33 17.86 18.19 17.86 18.19 17.9 18.24 17.9 18.24 19.24 17.47 19.24 17.33" style="fill:#1a1a1a;"/><path d="m19.24,1.67h0v-.1s-.1.05-.1.05l-1.62,5.35.1-.05,1.62-5.25Z" style="fill:#fff;"/><path d="m16.52,14.23v-1.96c0-.91.43-1.72,1.1-2.2h0c.48-.38.81-.95.81-1.58s-.29-1.19-.76-1.58l-.1.05c.48.33.76.91.76,1.53s-.29,1.19-.76,1.53h0c-.72.53-1.15,1.34-1.15,2.29v1.77l.1.14Z" style="fill:url(#Dégradé_sans_nom_51);"/><polygon points="8.78 11.41 16.42 15.8 16.42 15.8 16.52 15.75 16.52 15.75 8.88 11.36 8.78 11.41" style="fill:gray;"/><polygon points="16.42 17.33 16.52 17.38 16.52 17.38 16.52 15.75 16.42 15.8 16.42 17.33" style="fill:#f1f1f1;"/><polygon points="8.88 11.36 9.55 10.22 9.5 10.07 8.78 11.41 8.88 11.36" style="fill:#fff;"/><polygon points="16.42 14.08 9.5 10.07 9.55 10.22 16.52 14.23 16.42 14.08" style="fill:#eaeaea;"/><polygon points="19.24 15.8 19.24 15.71 20.58 14.94 20.67 14.99 19.24 15.8" style="fill:#f1f1f1;"/><path d="m19.24,10.98v-.1c.76,0,1.43.62,1.43,1.43v2.72h0l-.1-.05h0v-2.67c0-.76-.57-1.34-1.34-1.34Z" style="fill:url(#Dégradé_sans_nom_49);"/><polygon points="19.24 17.33 20.67 18.19 20.67 18.19 20.58 18.24 20.58 18.24 19.24 17.47 19.24 17.33" style="fill:gray;"/><path d="m19.24,1.67h0v-.1s.1.05.1.05l1.62,5.35-.1-.05-1.62-5.25Z" style="fill:#f1f1f1;"/><path d="m22.01,14.23v-1.96c0-.91-.43-1.72-1.1-2.2h0c-.48-.38-.81-.95-.81-1.58s.29-1.19.76-1.58l.1.05c-.48.33-.76.91-.76,1.53s.29,1.19.76,1.53h0c.72.53,1.15,1.34,1.15,2.29v1.77l-.1.14Z" style="fill:url(#Dégradé_sans_nom_47);"/><polygon points="29.74 11.41 22.1 15.8 22.1 15.8 22.01 15.75 22.01 15.75 29.6 11.36 29.74 11.41" style="fill:#1a1a1a;"/><polygon points="22.1 17.33 22.01 17.38 22.01 17.38 22.01 15.75 22.1 15.8 22.1 17.33" style="fill:#4e4d4d;"/><polygon points="29.6 11.36 28.93 10.22 28.98 10.07 29.74 11.41 29.6 11.36" style="fill:#b1b1b1;"/><polygon points="22.1 14.08 28.98 10.07 28.93 10.22 22.01 14.23 22.1 14.08" style="fill:#f1f1f1;"/><polygon points="16.52 20.58 16.42 20.62 16.42 22.15 16.52 22.2 16.52 20.58" style="fill:#f1f1f1;"/><path d="m12.32,23.01l-.1.05c.38.67,1.24.91,1.96.53l2.34-1.34h0l-.1-.05h0l-2.29,1.34c-.67.33-1.48.1-1.81-.53Z" style="fill:url(#Dégradé_sans_nom_45);"/><polygon points="17.86 19.81 19.24 20.62 19.24 20.62 19.24 20.53 19.24 20.53 17.9 19.76 17.86 19.81" style="fill:#eaeaea;"/><path d="m4.25,27.64h0l-.1.05s.05.05.1.05l5.44-1.24-.1-.1-5.35,1.24Z" style="fill:url(#Dégradé_sans_nom_43);"/><path d="m16.52,23.77l-1.67.95c-.76.43-1.67.48-2.48.14h0c-.57-.24-1.19-.24-1.77.1-.53.33-.91.86-.95,1.43l.1.1c.05-.57.38-1.1.95-1.43.53-.29,1.15-.33,1.67-.1h0c.81.33,1.72.33,2.53-.14l1.53-.91.1-.14Z" style="fill:url(#Dégradé_sans_nom_41);"/><polygon points="17.9 31.84 17.9 23.01 17.9 23.01 17.86 22.96 17.86 22.96 17.86 31.75 17.9 31.84" style="fill:#4e4d4d;"/><polygon points="19.24 22.25 19.24 22.15 19.24 22.15 17.86 22.96 17.9 23.01 19.24 22.25" style="fill:#1a1a1a;"/><polygon points="17.86 31.75 16.52 31.75 16.42 31.84 17.9 31.84 17.86 31.75" style="fill:#676767;"/><polygon points="16.42 23.92 16.42 31.84 16.52 31.75 16.52 23.77 16.42 23.92" style="fill:#f1f1f1;"/><polygon points="16.52 20.58 16.42 20.62 15.09 19.86 15.09 19.76 16.52 20.58" style="fill:gray;"/><path d="m12.32,23.01l-.1.05c-.38-.67-.14-1.53.53-1.96l2.34-1.34h0v.1h0l-2.29,1.34c-.67.38-.86,1.19-.48,1.81Z" style="fill:url(#Dégradé_sans_nom_39);"/><polygon points="17.86 19.81 17.86 18.19 17.86 18.19 17.9 18.24 17.9 18.24 17.9 19.76 17.86 19.81" style="fill:#4e4d4d;"/><path d="m4.25,27.64h0l-.1.05v-.1l3.82-4.06.05.1-3.77,4.01Z" style="fill:#fff;"/><path d="m13.75,19l-1.67.95c-.76.43-1.24,1.24-1.34,2.05h0c-.1.62-.43,1.15-.95,1.48-.53.33-1.19.33-1.72.14l-.05-.1c.53.24,1.15.19,1.72-.1.53-.29.86-.86.95-1.43h0c.1-.86.57-1.67,1.38-2.15l1.53-.91.14.05h0Z" style="fill:url(#Dégradé_sans_nom_37);"/><polygon points="7.45 13.7 15.09 18.09 15.09 18.09 15.09 18.24 15.09 18.24 7.5 13.84 7.45 13.7" style="fill:#eaeaea;"/><polygon points="16.42 17.33 16.52 17.38 16.52 17.38 15.09 18.24 15.09 18.09 16.42 17.33" style="fill:#f1f1f1;"/><polygon points="7.5 13.84 6.83 14.99 6.68 14.99 7.45 13.7 7.5 13.84" style="fill:#fff;"/><polygon points="13.56 19 6.68 14.99 6.83 14.99 13.75 19 13.56 19" style="fill:gray;"/><polygon points="22.01 20.58 22.1 20.62 23.39 19.86 23.39 19.76 22.01 20.58" style="fill:#1a1a1a;"/><path d="m26.21,23.01l.1.05c.38-.67.14-1.53-.53-1.96l-2.39-1.34h0v.1h0l2.29,1.34c.67.38.91,1.19.53,1.81Z" style="fill:url(#Dégradé_sans_nom_35);"/><polygon points="20.67 19.81 20.67 18.19 20.67 18.19 20.58 18.24 20.58 18.24 20.58 19.76 20.67 19.81" style="fill:#f1f1f1;"/><path d="m34.28,27.64h0l.1.05v-.1l-3.82-4.06v.1l3.72,4.01Z" style="fill:#cccbcb;"/><path d="m24.78,19l1.67.95c.76.43,1.24,1.24,1.34,2.05h0c.1.62.43,1.15,1,1.48.53.33,1.19.33,1.72.14v-.1c-.53.24-1.15.19-1.72-.1-.53-.29-.86-.86-.95-1.43h0c-.1-.86-.57-1.67-1.38-2.1l-1.53-.91s-.14,0-.14,0Z" style="fill:url(#Dégradé_sans_nom_33);"/><polygon points="31.08 13.7 23.44 18.09 23.44 18.09 23.44 18.24 23.44 18.24 31.03 13.84 31.08 13.7" style="fill:#f1f1f1;"/><polygon points="22.1 17.33 22.01 17.38 23.44 18.24 23.44 18.09 22.1 17.33" style="fill:#eaeaea;"/><polygon points="31.03 13.84 31.7 14.99 31.84 15.04 31.08 13.7 31.03 13.84" style="fill:#b1b1b1;"/><polygon points="24.92 19 31.84 15.04 31.7 14.99 24.78 19 24.92 19" style="fill:#1a1a1a;"/><polygon points="22.01 20.58 22.1 20.62 22.1 22.15 22.01 22.2 22.01 20.58" style="fill:#4e4d4d;"/><path d="m26.21,23.01l.1.05c-.38.67-1.24.91-1.96.53l-2.34-1.34h0l.1-.05h0l2.29,1.34c.62.33,1.43.1,1.81-.53Z" style="fill:url(#Dégradé_sans_nom_31);"/><polygon points="20.67 19.81 19.24 20.62 19.24 20.62 19.24 20.53 19.24 20.53 20.58 19.76 20.67 19.81" style="fill:#fff;"/><path d="m34.28,27.64h0l.1.05s-.05.05-.1.05l-5.44-1.24.1-.1,5.35,1.24Z" style="fill:url(#Dégradé_sans_nom_29);"/><path d="m22.01,23.77l1.67.95c.76.43,1.67.48,2.48.14h0c.57-.24,1.19-.19,1.77.1.53.33.91.86.95,1.43l-.1.1c-.05-.57-.38-1.1-.95-1.43-.53-.29-1.15-.33-1.67-.1h0c-.81.33-1.72.33-2.53-.14l-1.53-.91-.1-.14Z" style="fill:url(#Dégradé_sans_nom_13);"/><polygon points="20.58 31.84 20.58 23.01 20.58 23.01 20.67 22.96 20.67 22.96 20.67 31.75 20.58 31.84" style="fill:#f1f1f1;"/><polygon points="19.24 22.25 19.24 22.15 19.24 22.15 20.67 22.96 20.58 23.01 19.24 22.25" style="fill:gray;"/><polygon points="20.67 31.75 22.01 31.75 22.1 31.84 20.58 31.84 20.67 31.75" style="fill:#676767;"/><polygon points="22.1 23.92 22.1 31.84 22.01 31.75 22.01 23.77 22.1 23.92" style="fill:#4e4d4d;"/><path d="m19.62,1.38l.76,2.48.05-.1-.76-2.43h0c-.1-.19-.24-.29-.43-.29v.1c.14.05.29.1.38.24Z" style="fill:url(#Dégradé_sans_nom_9);"/><path d="m34.52,19c0-8.02-6.21-14.61-14.04-15.18l-.05.1c7.78.53,13.99,7.07,13.99,15.09,0,2.34-.53,4.58-1.48,6.59h.1c.91-2.01,1.48-4.25,1.48-6.59Z" style="fill:url(#Dégradé_sans_nom_27);"/><path d="m34.71,27.4l-1.72-1.86h-.1l1.77,1.91c.1.1.1.29.05.43l.1.05c.05-.1.05-.14.05-.24-.05-.1-.05-.19-.14-.29Z" style="fill:url(#Dégradé_sans_nom_12);"/><path d="m34.66,27.88c-.1.14-.24.19-.38.19l-2.53-.57.05.1,2.48.53h.1c.14,0,.33-.1.43-.24h-.14Z" style="fill:url(#Dégradé_sans_nom_12-2);"/><path d="m31.8,27.55c-2.77,3.96-7.35,6.59-12.56,6.59s-9.79-2.63-12.51-6.64l-.05.14c2.77,4.01,7.35,6.59,12.56,6.59s9.83-2.63,12.56-6.59v-.1Z" style="fill:url(#Dégradé_sans_nom_27-2);"/><path d="m4.15,28.17h.05l2.48-.53.05-.1-2.53.57c-.14,0-.29-.05-.38-.19l-.1.05c.1.1.24.19.43.19Z" style="fill:url(#Dégradé_sans_nom_11);"/><path d="m3.77,27.4c-.05.1-.1.19-.1.29s0,.14.05.24l.1-.05c-.1-.14-.05-.29,0-.43l1.77-1.91h-.1l-1.72,1.86Z" style="fill:url(#Dégradé_sans_nom_11-2);"/><path d="m4.01,19c0,2.34.53,4.58,1.48,6.59h.1c-.95-2.01-1.48-4.2-1.48-6.59,0-8.02,6.16-14.56,14.04-15.13l-.05-.1c-7.92.62-14.08,7.21-14.08,15.23Z" style="fill:url(#Dégradé_sans_nom_27-3);"/><path d="m18.81,1.38l-.76,2.43.1.05.76-2.48c.05-.14.19-.24.33-.24v-.05c-.19,0-.33.1-.43.29Z" style="fill:url(#Dégradé_sans_nom_9-2);"/><rect id="_Slice_" width="179.03" height="38.19" style="fill:none;"/></g></g></svg>