<?xml version="1.0" standalone="no"?>
<!DOCTYPE svg PUBLIC "-//W3C//DTD SVG 20010904//EN"
 "http://www.w3.org/TR/2001/REC-SVG-20010904/DTD/svg10.dtd">
<svg version="1.0" xmlns="http://www.w3.org/2000/svg"
 width="250.000000pt" height="250.000000pt" viewBox="0 0 250.000000 250.000000"
 preserveAspectRatio="xMidYMid meet">

<g transform="translate(0.000000,250.000000) scale(0.100000,-0.100000)"
fill="#000000" stroke="none">
<path d="M1095 2489 c-540 -73 -967 -474 -1072 -1006 -21 -108 -23 -337 -4
-443 92 -513 487 -916 998 -1017 119 -23 347 -23 466 0 503 100 894 491 994
994 23 119 23 347 0 466 -100 502 -490 893 -991 993 -93 18 -302 25 -391 13z
m69 -455 c25 -14 46 -29 46 -32 0 -4 -10 -13 -21 -21 -20 -12 -24 -10 -45 16
-20 24 -38 63 -29 63 1 0 23 -12 49 -26z m219 7 c-9 -35 -72 -100 -101 -104
-15 -2 -2 -4 28 -5 42 0 49 2 30 8 l-25 8 22 7 c13 4 21 11 18 15 -3 4 1 12 8
18 14 12 97 35 103 29 9 -9 -41 -60 -70 -72 l-31 -14 25 -9 c25 -10 24 -10
-20 -31 -48 -22 -162 -29 -190 -11 -12 7 -6 13 27 27 24 10 43 25 43 33 0 23
41 68 85 94 50 30 54 31 48 7z m-264 -45 c31 -15 31 -29 -2 -40 -28 -10 -58 8
-79 47 -9 17 -7 18 24 12 18 -4 44 -12 57 -19z m145 -1 c-12 -36 -43 -72 -74
-85 -16 -7 -30 -19 -30 -26 0 -8 -4 -14 -10 -14 -31 0 14 86 60 113 17 10 28
22 26 26 -3 3 4 7 15 7 14 0 18 -5 13 -21z m-121 -73 c-18 -25 -87 -71 -107
-72 -11 0 2 52 18 68 12 13 98 41 105 35 3 -2 -4 -16 -16 -31z m292 6 c16 -7
25 -19 25 -34 0 -13 5 -26 10 -29 6 -3 10 -10 10 -14 0 -5 -21 1 -46 12 -38
18 -43 23 -30 33 19 14 21 30 4 37 -7 3 -10 6 -6 6 4 1 19 -4 33 -11z m-419
-66 c-9 -17 -24 -36 -33 -41 -14 -8 -9 -10 25 -11 50 0 54 -13 10 -40 -46 -28
-116 -42 -163 -33 l-39 9 35 22 c20 12 53 26 75 31 30 7 33 9 13 10 -14 1 -47
-10 -73 -24 -25 -13 -46 -20 -46 -15 0 19 40 50 109 84 38 20 73 41 76 47 5 7
11 7 17 1 6 -6 4 -21 -6 -40z m562 -11 c63 -32 102 -63 102 -81 0 -5 -21 2
-46 15 -26 14 -58 25 -71 25 -35 0 -61 16 -78 51 -19 36 -11 57 13 36 10 -8
45 -29 80 -46z m-395 9 c15 0 27 -4 27 -8 0 -10 -61 -38 -101 -46 -31 -7 -83
13 -87 32 -1 8 1 11 6 8 5 -3 26 2 48 9 21 8 48 13 59 10 11 -3 32 -5 48 -5z
m271 -17 l30 -15 -31 -13 c-34 -15 -91 -7 -138 18 -22 11 -26 17 -15 21 50 17
106 13 154 -11z m106 -43 c29 -5 69 -20 88 -32 l36 -22 -39 -9 c-47 -9 -117 5
-163 33 -62 38 -29 50 78 30z m-754 -27 c-7 -30 -13 -35 -93 -88 -62 -39 -71
-26 -21 31 31 35 94 82 112 83 4 1 5 -11 2 -26z m471 21 c-3 -3 -12 -4 -19 -1
-8 3 -5 6 6 6 11 1 17 -2 13 -5z m461 -18 c46 -29 102 -91 102 -113 0 -14 -3
-13 -22 4 -13 11 -42 30 -66 42 -38 19 -62 51 -62 82 0 13 6 11 48 -15z m-524
-1 c-5 -12 3 -15 35 -15 31 0 41 4 41 16 0 13 3 14 14 5 9 -7 33 -11 58 -8 24
2 33 2 21 0 -25 -5 -30 -18 -10 -26 7 -3 5 -6 -5 -6 -10 -1 -18 3 -18 7 0 10
-196 9 -206 -1 -12 -12 -24 -8 -18 7 4 9 -3 16 -18 19 -13 3 3 3 35 0 38 -4
57 -2 57 6 0 6 4 11 10 11 5 0 7 -7 4 -15z m-146 -12 c-18 -4 -25 -28 -10 -36
4 -2 1 -2 -6 0 -15 3 -52 -14 -67 -32 -11 -13 -51 -35 -98 -54 -15 -6 -26 -15
-22 -20 3 -5 -20 -31 -50 -57 -33 -29 -53 -54 -50 -62 3 -7 -2 -23 -10 -35 -8
-12 -15 -16 -15 -10 0 7 5 15 10 18 15 9 12 25 -5 25 -18 0 -49 -56 -35 -65 6
-3 15 -3 20 0 6 3 10 1 10 -4 0 -6 -6 -11 -14 -11 -16 0 -29 -39 -17 -54 4 -6
4 -24 0 -41 l-7 -30 -1 33 c-1 41 -30 45 -32 5 -2 -26 -2 -26 -6 -5 -3 16 3
31 17 44 15 14 20 28 17 46 -6 30 21 92 39 92 16 0 45 40 37 52 -7 12 57 79
69 72 12 -7 48 25 48 42 0 8 15 21 33 30 l32 16 -29 -25 c-52 -43 -8 -43 53 0
2 1 -1 9 -7 16 -10 11 -6 14 20 14 21 0 36 7 46 21 8 12 22 21 31 21 13 -1 13
-2 -1 -6z m393 -13 c8 -12 25 -21 39 -22 43 -1 78 -19 105 -54 14 -19 34 -34
44 -34 20 0 71 -50 71 -71 1 -18 24 -49 38 -49 17 0 46 -61 44 -91 -1 -14 7
-36 18 -49 11 -13 19 -35 19 -49 -1 -25 -2 -25 -8 4 -6 24 -11 30 -31 27 -16
-1 -21 1 -12 6 15 10 6 41 -17 60 -9 7 -11 12 -6 11 32 -4 34 2 18 36 -17 35
-39 42 -37 12 1 -9 -2 -14 -8 -11 -5 3 -8 13 -7 22 3 25 -11 52 -27 52 -16 0
-73 59 -74 76 0 11 -23 25 -45 28 -25 4 -85 41 -85 53 0 7 -6 13 -12 14 -7 1
-30 2 -51 3 -20 2 -40 6 -45 11 -4 4 5 5 20 1 32 -7 46 8 21 23 -16 9 -16 10
-2 11 9 0 23 -9 30 -20z m-354 -16 c-3 -3 -12 -4 -19 -1 -8 3 -5 6 6 6 11 1
17 -2 13 -5z m-247 -24 c-24 -45 -123 -100 -180 -100 -27 0 -30 2 -20 19 15
28 67 63 125 83 69 24 89 24 75 -2z m897 -16 c29 -14 62 -37 74 -52 l21 -27
-33 -3 c-43 -5 -134 43 -168 87 l-26 34 40 -7 c22 -4 64 -18 92 -32z m-1114
-35 c8 -29 -13 -88 -48 -133 -19 -25 -31 -33 -36 -25 -4 7 -9 -15 -12 -47 -2
-32 -12 -81 -22 -108 -16 -43 -20 -47 -31 -31 -35 47 -24 151 21 202 21 24 26
26 35 13 9 -11 10 -7 5 17 -7 36 5 64 43 106 31 33 38 34 45 6z m1259 -6 c36
-39 51 -71 44 -98 -4 -17 -2 -22 11 -21 23 2 61 -58 69 -109 6 -42 -8 -109
-26 -120 -13 -8 -42 85 -47 149 -3 35 -8 54 -13 46 -9 -14 -80 84 -80 110 0 9
-5 21 -12 28 -9 9 -9 12 0 12 7 0 12 7 12 15 0 22 13 18 42 -12z m-522 -40 c1
-44 3 -54 11 -40 12 20 38 21 98 3 50 -14 63 -31 32 -41 -11 -3 -18 -12 -15
-19 4 -10 -6 -13 -36 -13 -23 0 -46 -5 -52 -11 -13 -13 -48 26 -48 52 0 23 -9
20 -32 -9 -21 -27 -48 -32 -76 -14 -13 8 -31 7 -70 -4 -56 -17 -100 -11 -132
18 -16 14 -19 14 -34 -10 -9 -14 -23 -25 -31 -25 -16 0 -30 41 -22 62 3 7 6 3
6 -9 1 -35 18 -36 37 -3 21 35 34 38 52 10 10 -17 23 -20 76 -20 36 0 68 5 71
10 3 6 -1 10 -11 10 -13 0 -14 3 -4 15 14 17 67 20 90 5 13 -9 12 -12 -4 -25
-20 -15 -20 -15 0 -15 12 0 25 10 32 25 13 27 27 32 35 13 3 -7 6 11 6 40 1
71 21 66 21 -5z m-315 -3 c8 -13 -37 -31 -49 -20 -4 5 -5 13 -2 19 9 14 43 14
51 1z m-340 -33 c-8 -29 -53 -74 -109 -107 l-39 -24 7 30 c11 45 38 76 92 106
27 15 50 25 52 24 2 -2 0 -15 -3 -29z m1172 -56 c13 -19 23 -42 23 -53 0 -18
-2 -17 -40 4 -54 31 -97 76 -106 112 l-7 29 54 -29 c29 -16 64 -44 76 -63z
m-1006 23 c-39 -61 -54 -131 -49 -219 6 -95 40 -165 113 -234 174 -165 446
-156 608 19 69 74 97 144 97 239 0 80 -18 147 -56 204 l-27 42 42 -40 c86 -82
135 -237 112 -352 -24 -125 -97 -229 -212 -303 -152 -98 -372 -99 -537 -3
-149 88 -243 278 -214 434 15 82 52 158 102 213 24 25 44 46 46 46 2 0 -9 -21
-25 -46z m394 -124 c3 -160 8 -260 11 -260 3 0 16 7 29 16 24 16 34 44 16 44
-37 0 -54 79 -26 116 14 18 15 16 9 -21 -4 -31 -2 -44 10 -54 14 -12 16 -9 15
20 0 19 -4 66 -8 104 -4 39 -5 79 -1 89 6 18 7 18 23 -4 9 -13 13 -29 9 -36
-4 -7 -6 -49 -4 -93 3 -62 7 -81 18 -81 11 0 13 9 8 40 -8 49 12 56 29 10 13
-35 18 -36 41 -11 16 17 15 19 -14 24 -20 5 -30 12 -30 25 0 41 51 57 70 23
17 -33 11 -68 -15 -92 -45 -43 -27 -115 27 -107 30 4 33 45 15 191 -10 80 -10
112 -2 124 9 12 15 8 39 -27 85 -128 76 -269 -21 -349 -43 -36 -127 -64 -175
-59 -29 3 -25 5 37 25 89 28 159 73 181 114 21 42 14 131 -15 185 -12 21 -19
29 -16 17 3 -12 7 -65 8 -118 2 -95 1 -97 -26 -121 -36 -31 -52 -30 -82 2 -23
25 -24 25 -34 6 -18 -34 -78 -65 -109 -56 -36 10 -46 7 -89 -22 -63 -43 -124
-32 -166 29 -11 16 -17 17 -39 6 -23 -10 -31 -9 -53 5 -36 23 -41 42 -22 79
16 31 16 31 11 4 -8 -34 10 -57 45 -57 47 0 66 22 64 74 -1 43 9 61 20 34 4
-10 8 -9 16 2 16 22 13 30 -9 30 -11 0 -20 4 -20 9 0 18 44 41 76 41 61 0 81
-20 47 -46 -16 -13 -15 -13 7 -5 14 4 25 13 24 20 -1 6 -2 20 -2 30 -1 11 -9
18 -19 17 -10 0 -18 6 -18 14 0 8 8 14 18 13 15 -1 18 6 16 35 -3 63 0 77 13
64 6 -6 13 -50 15 -97 3 -81 2 -87 -22 -111 -22 -22 -31 -25 -64 -19 -22 3
-42 2 -45 -3 -3 -5 24 -12 61 -15 72 -5 92 -20 94 -66 l0 -26 10 24 c5 14 6
27 1 30 -10 7 -23 267 -14 290 8 25 27 -20 27 -69z m-320 23 c0 -30 -30 -41
-30 -11 0 9 -4 20 -8 24 -4 4 -2 13 4 21 16 19 35 0 34 -34z m-325 2 c0 -24
-35 -87 -73 -133 -27 -32 -36 -38 -41 -26 -12 30 15 98 54 136 40 40 60 48 60
23z m1280 -23 c44 -44 67 -110 50 -142 -8 -14 -8 -31 -1 -58 6 -20 13 -48 15
-62 3 -14 3 3 0 36 -5 59 -3 63 29 98 19 20 39 36 44 36 6 0 5 -32 -3 -85 -12
-82 -35 -137 -70 -166 -15 -12 -16 -10 -10 21 4 26 3 30 -3 15 -8 -17 -10 -16
-10 12 -1 48 -10 66 -27 52 -8 -7 -17 -9 -20 -6 -7 7 -32 151 -27 156 2 3 19
-11 38 -29 44 -42 46 -30 4 18 -31 35 -68 105 -69 130 0 22 22 13 60 -26z
m-730 -1 c0 -10 -9 -26 -19 -35 -16 -14 -23 -15 -41 -6 -17 9 -25 8 -39 -4
-10 -9 -22 -16 -28 -16 -6 0 -10 -7 -9 -17 1 -19 -45 -35 -65 -23 -17 11 6 41
27 33 16 -6 17 -2 8 21 -11 29 -43 18 -69 -24 -14 -22 -29 -40 -34 -40 -24 0
-51 82 -32 95 7 4 11 -3 11 -17 0 -13 5 -30 10 -38 9 -13 12 -13 20 2 20 33
62 78 73 78 7 0 18 -9 25 -20 16 -26 40 -25 68 1 21 20 24 20 39 5 17 -16 40
-13 30 5 -8 12 4 31 16 24 5 -4 9 -14 9 -24z m607 -103 c-3 -7 -5 -2 -5 12 0
14 2 19 5 13 2 -7 2 -19 0 -25z m-1311 -23 c30 -33 33 -39 31 -98 -1 -34 2
-78 7 -97 8 -31 7 -33 -8 -21 -34 28 -56 81 -69 164 -9 55 -11 87 -4 87 5 0
25 -16 43 -35z m119 -40 c-13 -83 -18 -93 -39 -76 -10 9 -15 8 -19 -3 -3 -8 1
-13 11 -12 26 2 62 -72 62 -129 0 -72 -10 -81 -43 -40 -21 27 -27 45 -28 87 0
37 -3 47 -8 33 -15 -36 -25 68 -11 110 12 36 64 105 80 105 4 0 2 -34 -5 -75z
m82 14 c-9 -15 -9 -23 0 -38 10 -16 9 -20 -13 -24 -18 -3 -22 -1 -15 6 6 6 11
23 11 37 0 14 -5 31 -11 37 -7 7 -3 9 15 6 22 -4 23 -8 13 -24z m1145 -5 c-2
-17 1 -35 7 -38 6 -4 11 -12 11 -18 0 -7 -5 -6 -15 2 -8 6 -19 9 -25 5 -5 -3
-10 -1 -10 4 0 6 5 11 10 11 6 0 10 11 10 25 0 14 -4 25 -10 25 -5 0 -10 4
-10 8 0 4 8 8 18 8 14 0 17 -7 14 -32z m-1123 -130 c-12 -15 1 -54 17 -54 8 0
14 -5 14 -11 0 -5 -4 -7 -10 -4 -22 13 -30 -6 -15 -36 16 -30 52 -42 41 -13
-3 9 -2 12 5 9 5 -4 7 -14 4 -24 -3 -12 11 -31 50 -65 30 -26 53 -52 50 -57
-4 -5 7 -14 22 -20 47 -19 87 -41 98 -54 15 -18 52 -35 67 -32 7 2 10 2 6 0
-15 -9 -8 -33 10 -34 12 0 13 -2 3 -6 -8 -3 -21 4 -31 16 -10 14 -29 23 -51
25 -40 3 -99 34 -99 52 0 16 -37 47 -48 40 -11 -7 -75 58 -66 67 9 9 -25 59
-36 52 -15 -9 -49 67 -43 96 3 19 -2 33 -17 47 -14 13 -20 28 -17 44 4 21 4
21 6 -4 2 -41 31 -37 32 5 l1 32 7 -30 c4 -16 4 -35 0 -41z m1104 9 c6 2 14
14 18 28 7 24 7 24 8 -3 1 -15 -6 -31 -15 -36 -10 -6 -17 -25 -19 -48 -3 -47
-23 -94 -41 -94 -14 0 -40 -39 -36 -54 4 -14 -50 -66 -68 -66 -18 0 -44 -25
-53 -50 -4 -12 -6 -11 -6 3 -1 9 -6 17 -11 17 -9 0 -44 -19 -69 -37 -2 -1 2
-10 10 -20 8 -10 9 -14 2 -10 -17 11 -63 -3 -63 -18 0 -13 -22 -26 -43 -24 -7
0 -1 5 13 10 25 10 25 11 5 25 l-20 16 20 -3 c25 -3 65 9 65 21 0 11 59 45 93
54 15 3 31 14 34 24 10 26 53 75 77 87 11 6 21 20 21 32 0 12 4 25 8 30 5 4 7
2 5 -6 -6 -27 21 -21 36 8 21 39 20 44 -5 38 -11 -3 -19 -1 -17 5 2 5 8 9 13
8 14 -2 24 31 20 70 -1 19 0 25 2 12 2 -13 10 -21 16 -19z m137 -44 c0 -61 -3
-74 -27 -104 -19 -24 -30 -30 -35 -22 -14 21 -9 107 8 140 40 79 54 75 54 -14z
m-1356 -143 c32 -67 15 -83 -45 -43 -42 28 -79 91 -79 135 l0 34 54 -47 c30
-25 61 -61 70 -79z m1417 26 c-21 -42 -58 -77 -93 -88 -27 -8 -31 -1 -23 37 5
22 28 53 69 92 l61 58 3 -30 c2 -16 -6 -47 -17 -69z m-1305 -48 c4 -24 3 -39
-6 -44 -9 -6 -9 -13 -1 -28 19 -35 13 -44 -19 -27 -49 25 -59 64 -43 159 l6
39 28 -31 c15 -17 31 -48 35 -68z m1163 -2 c1 -53 -11 -77 -49 -97 -32 -17
-38 -8 -19 27 8 15 8 22 -1 28 -19 12 -5 67 27 109 l28 36 6 -30 c4 -17 7 -49
8 -73z m-1133 -169 l34 -53 -25 0 c-72 0 -195 100 -195 159 0 6 34 -4 76 -22
68 -28 80 -38 110 -84z m33 80 c24 -20 52 -51 62 -67 13 -21 19 -25 19 -14 0
16 9 14 68 -14 37 -18 93 -50 126 -71 43 -29 61 -36 66 -26 5 7 23 11 47 9 21
-2 63 -3 93 -3 30 0 72 1 93 3 25 2 42 -2 47 -10 7 -11 16 -8 42 12 19 15 76
47 126 72 76 37 92 42 92 28 1 -14 2 -14 12 3 24 44 105 115 131 115 2 0 -5
-27 -15 -59 -21 -66 -81 -131 -119 -131 -18 0 -20 4 -14 28 6 24 3 22 -23 -13
-62 -86 -147 -137 -234 -140 -55 -3 -56 -2 -55 22 2 25 1 25 -83 25 -83 0 -85
0 -83 -23 1 -21 -4 -24 -37 -27 -80 -5 -190 56 -252 142 -26 36 -29 38 -23 14
6 -24 4 -28 -14 -28 -36 0 -99 67 -116 123 -24 82 -20 85 44 30z m1167 -11
c-31 -60 -123 -122 -181 -122 l-26 0 19 28 c11 15 26 39 35 53 16 26 159 94
165 78 2 -4 -4 -21 -12 -37z m-346 -27 c0 -2 -10 -9 -22 -15 -22 -11 -22 -10
-4 4 21 17 26 19 26 11z m-483 -41 c-3 -3 -12 -4 -19 -1 -8 3 -5 6 6 6 11 1
17 -2 13 -5z m310 0 c-3 -3 -12 -4 -19 -1 -8 3 -5 6 6 6 11 1 17 -2 13 -5z
m-273 -11 c10 -10 216 -11 216 -1 0 4 5 8 11 8 5 0 7 -5 4 -10 -3 -6 4 -15 17
-20 17 -7 10 -8 -27 -4 -40 5 -54 2 -64 -10 -18 -22 -89 -22 -98 0 -5 13 -17
15 -62 11 -31 -3 -46 -3 -33 0 15 3 22 10 18 19 -6 15 6 19 18 7z m-301 -78
c32 -4 59 -16 80 -34 18 -16 48 -38 67 -50 l35 -21 -58 0 c-67 0 -98 11 -185
68 -61 40 -64 55 -7 46 11 -2 42 -6 68 -9z m929 5 c14 0 -90 -69 -137 -91 -24
-11 -63 -19 -99 -19 l-60 0 45 30 c24 16 55 39 69 50 24 19 129 42 158 34 8
-2 18 -4 24 -4z m-457 -110 c22 -18 18 -45 -8 -76 -25 -29 -47 -26 -47 7 0 10
-4 19 -10 19 -5 0 -10 -9 -10 -19 0 -33 -22 -36 -47 -6 -29 33 -27 65 7 83 28
14 93 10 115 -8z m-292 -43 c34 -1 79 2 100 6 30 6 37 5 37 -7 0 -18 -41 -30
-160 -50 -189 -31 -196 -30 -164 19 10 16 14 34 9 54 l-6 29 60 -24 c39 -16
84 -26 124 -27z m632 23 c-5 -21 -2 -39 9 -55 32 -49 25 -50 -164 -19 -119 20
-160 32 -160 50 0 12 7 13 38 7 66 -14 157 -5 219 20 32 14 59 25 61 26 2 0 1
-13 -3 -29z m-530 -91 c-59 -29 -117 -37 -143 -20 -9 5 9 13 55 21 37 7 77 16
88 21 53 21 53 4 0 -22z m323 5 c53 -11 79 -20 70 -25 -26 -17 -84 -8 -143 21
-33 17 -49 28 -35 25 14 -2 62 -12 108 -21z"/>
<path d="M1310 1989 c-35 -31 -35 -31 -3 -9 18 11 35 25 38 30 10 16 2 11 -35
-21z"/>
<path d="M1263 1903 c9 -2 25 -2 35 0 9 3 1 5 -18 5 -19 0 -27 -2 -17 -5z"/>
<path d="M1184 1938 l-19 -23 25 20 c14 11 27 21 29 22 2 2 0 3 -6 3 -5 0 -18
-10 -29 -22z"/>
<path d="M943 1773 c9 -2 25 -2 35 0 9 3 1 5 -18 5 -19 0 -27 -2 -17 -5z"/>
<path d="M1523 1773 c9 -2 25 -2 35 0 9 3 1 5 -18 5 -19 0 -27 -2 -17 -5z"/>
<path d="M806 1601 c-19 -20 -24 -31 -16 -36 17 -10 68 41 54 55 -7 7 -19 1
-38 -19z"/>
<path d="M1516 1711 c-7 -10 59 -52 68 -44 12 12 5 23 -24 38 -34 18 -37 18
-44 6z"/>
<path d="M1646 1622 c-3 -5 8 -21 23 -36 36 -34 54 -16 20 20 -24 25 -35 29
-43 16z"/>
<path d="M724 1664 c-18 -14 -18 -14 6 -3 31 14 36 19 24 19 -6 0 -19 -7 -30
-16z"/>
<path d="M1741 1676 c2 -2 15 -9 29 -15 24 -11 24 -11 6 3 -16 13 -49 24 -35
12z"/>
<path d="M587 1591 c-9 -16 -17 -33 -17 -38 0 -4 9 7 21 26 11 18 18 35 17 37
-2 2 -12 -10 -21 -25z"/>
<path d="M503 1435 c0 -22 2 -30 4 -17 2 12 2 30 0 40 -3 9 -5 -1 -4 -23z"/>
<path d="M1890 1618 c0 -4 9 -22 20 -40 11 -18 20 -28 20 -23 0 6 -9 24 -20
40 -11 17 -20 27 -20 23z"/>
<path d="M1993 1435 c0 -22 2 -30 4 -17 2 12 2 30 0 40 -3 9 -5 -1 -4 -23z"/>
<path d="M633 1524 l-28 -26 33 22 c29 20 39 30 28 30 -3 0 -18 -12 -33 -26z"/>
<path d="M1830 1546 c0 -3 15 -15 33 -27 23 -17 28 -18 18 -6 -14 18 -51 42
-51 33z"/>
<path d="M1388 1223 c-11 -3 -18 -14 -18 -28 0 -14 -9 -29 -21 -35 -11 -7 -18
-14 -15 -17 10 -11 86 49 86 68 0 19 -2 20 -32 12z"/>
<path d="M1074 1172 c-21 -39 -13 -59 30 -80 21 -11 34 -11 63 -1 l36 12 -25
13 c-25 13 -44 56 -33 73 2 5 -8 11 -24 13 -24 4 -31 -1 -47 -30z"/>
<path d="M1167 1183 c11 -31 25 -43 49 -43 19 0 24 5 24 24 0 25 -16 36 -56
36 -18 0 -22 -4 -17 -17z"/>
<path d="M569 1368 c-17 -24 -18 -29 -6 -19 18 14 42 51 33 51 -3 0 -15 -15
-27 -32z"/>
<path d="M1909 1382 c5 -10 18 -25 28 -33 12 -10 11 -5 -6 19 -24 35 -38 43
-22 14z"/>
<path d="M2016 1255 c-3 -9 -6 -26 -5 -38 1 -14 4 -9 9 13 9 37 7 52 -4 25z"/>
<path d="M1941 1214 c0 -11 3 -14 6 -6 3 7 2 16 -1 19 -3 4 -6 -2 -5 -13z"/>
<path d="M2001 1174 c0 -11 3 -14 6 -6 3 7 2 16 -1 19 -3 4 -6 -2 -5 -13z"/>
<path d="M476 1240 c8 -43 14 -51 14 -19 0 13 -5 31 -10 39 -7 11 -8 5 -4 -20z"/>
<path d="M491 1174 c0 -11 3 -14 6 -6 3 7 2 16 -1 19 -3 4 -6 -2 -5 -13z"/>
<path d="M551 1214 c0 -11 3 -14 6 -6 3 7 2 16 -1 19 -3 4 -6 -2 -5 -13z"/>
<path d="M571 1064 c0 -11 3 -14 6 -6 3 7 2 16 -1 19 -3 4 -6 -2 -5 -13z"/>
<path d="M581 1024 c0 -11 3 -14 6 -6 3 7 2 16 -1 19 -3 4 -6 -2 -5 -13z"/>
<path d="M786 932 c-3 -5 8 -21 23 -36 36 -34 54 -16 20 20 -24 25 -35 29 -43
16z"/>
<path d="M905 831 c-7 -12 54 -53 67 -45 15 9 8 21 -19 35 -16 7 -31 15 -35
17 -3 2 -9 -2 -13 -7z"/>
<path d="M1672 917 c-25 -27 -28 -37 -9 -37 14 0 57 41 57 53 0 15 -28 6 -48
-16z"/>
<path d="M1921 1064 c0 -11 3 -14 6 -6 3 7 2 16 -1 19 -3 4 -6 -2 -5 -13z"/>
<path d="M1911 1024 c0 -11 3 -14 6 -6 3 7 2 16 -1 19 -3 4 -6 -2 -5 -13z"/>
<path d="M520 975 c13 -14 26 -25 28 -25 3 0 -5 11 -18 25 -13 14 -26 25 -28
25 -3 0 5 -11 18 -25z"/>
<path d="M1969 973 l-24 -28 28 24 c15 14 27 26 27 28 0 8 -8 1 -31 -24z"/>
<path d="M663 925 c0 -22 2 -30 4 -17 2 12 2 30 0 40 -3 9 -5 -1 -4 -23z"/>
<path d="M1833 925 c0 -22 2 -30 4 -17 2 12 2 30 0 40 -3 9 -5 -1 -4 -23z"/>
<path d="M600 815 c0 -7 81 -47 86 -43 2 3 -17 14 -41 26 -25 12 -45 20 -45
17z"/>
<path d="M765 791 c16 -28 30 -49 32 -47 6 6 -35 83 -48 92 -7 4 1 -16 16 -45z"/>
<path d="M1742 828 c-16 -21 -44 -80 -39 -84 2 -2 16 18 31 46 26 48 30 64 8
38z"/>
<path d="M910 699 c26 -22 153 -89 135 -71 -5 5 -44 28 -85 51 -41 23 -64 32
-50 20z"/>
<path d="M1533 677 c-91 -53 -106 -68 -28 -29 51 25 121 73 105 71 -3 -1 -37
-20 -77 -42z"/>
<path d="M1850 795 c-25 -13 -41 -24 -37 -25 11 0 87 39 87 45 0 7 0 7 -50
-20z"/>
<path d="M1210 725 c0 -11 11 -15 40 -15 29 0 40 4 40 15 0 11 -11 15 -40 15
-29 0 -40 -4 -40 -15z"/>
<path d="M850 630 c8 -5 20 -10 25 -10 6 0 3 5 -5 10 -8 5 -19 10 -25 10 -5 0
-3 -5 5 -10z"/>
<path d="M1630 630 c-8 -5 -10 -10 -5 -10 6 0 17 5 25 10 8 5 11 10 5 10 -5 0
-17 -5 -25 -10z"/>
</g>
</svg>
